<?xml version="1.0" encoding="UTF-8"?>
<svg width="1238.5056" height="360.21936" xmlns="http://www.w3.org/2000/svg" xmlns:svg="http://www.w3.org/2000/svg">
 <title>brown car</title>
 <defs>
  <radialGradient fx="0" fy="0" cx="0" cy="0" r="1" gradientUnits="userSpaceOnUse" gradientTransform="matrix(-66.597675,0,0,-66.597687,75.760556,302.90298)" spreadMethod="pad" id="radialGradient124809">
   <stop offset="0" id="stop124811" stop-color="#f5f6fa"/>
   <stop offset="0.28418" id="stop124813" stop-color="#d5dae0"/>
   <stop offset="0.419922" id="stop124815" stop-color="#fdfdfd"/>
   <stop offset="0.65918" id="stop124817" stop-color="#9fa0a5"/>
   <stop offset="0.869141" id="stop124819" stop-color="#eef3f5"/>
   <stop offset="1" id="stop124821" stop-color="#eef3f5"/>
  </radialGradient>
  <radialGradient fx="0" fy="0" cx="0" cy="0" r="1" gradientUnits="userSpaceOnUse" gradientTransform="matrix(-4.6521,-15.791587,-15.79155,4.6521,280.24152,271.13548)" spreadMethod="pad" id="radialGradient123965">
   <stop offset="0" id="stop123967" stop-color="#ffffff"/>
   <stop offset="1" id="stop123969" stop-color="#000000"/>
  </radialGradient>
  <radialGradient fx="0" fy="0" cx="0" cy="0" r="1" gradientUnits="userSpaceOnUse" gradientTransform="matrix(-2.4931375,-8.4632125,-8.4631375,2.4932125,283.50187,284.85798)" spreadMethod="pad" id="radialGradient123957">
   <stop offset="0" id="stop123959" stop-color="#ffffff"/>
   <stop offset="1" id="stop123961" stop-color="#000000"/>
  </radialGradient>
  <radialGradient fx="0" fy="0" cx="0" cy="0" r="1" gradientUnits="userSpaceOnUse" gradientTransform="matrix(-2.4931375,-8.4631375,-8.4631375,2.4932125,295.94221,268.54633)" spreadMethod="pad" id="radialGradient123949">
   <stop offset="0" id="stop123951" stop-color="#ffffff"/>
   <stop offset="1" id="stop123953" stop-color="#000000"/>
  </radialGradient>
  <radialGradient fx="0" fy="0" cx="0" cy="0" r="1" gradientUnits="userSpaceOnUse" gradientTransform="matrix(-2.4931375,-8.4631,-8.4630625,2.493175,283.45609,251.52988)" spreadMethod="pad" id="radialGradient123941">
   <stop offset="0" id="stop123943" stop-color="#ffffff"/>
   <stop offset="1" id="stop123945" stop-color="#000000"/>
  </radialGradient>
  <radialGradient fx="0" fy="0" cx="0" cy="0" r="1" gradientUnits="userSpaceOnUse" gradientTransform="matrix(-2.4931375,-8.463175,-8.4631375,2.493175,264.80352,258.46207)" spreadMethod="pad" id="radialGradient123933">
   <stop offset="0" id="stop123935" stop-color="#ffffff"/>
   <stop offset="1" id="stop123937" stop-color="#000000"/>
  </radialGradient>
  <radialGradient fx="0" fy="0" cx="0" cy="0" r="1" gradientUnits="userSpaceOnUse" gradientTransform="matrix(-2.4932875,-8.4632875,-8.4632125,2.4931375,263.84748,278.14503)" spreadMethod="pad" id="radialGradient123925">
   <stop offset="0" id="stop123927" stop-color="#ffffff"/>
   <stop offset="1" id="stop123929" stop-color="#000000"/>
  </radialGradient>
  <radialGradient fx="0" fy="0" cx="0" cy="0" r="1" gradientUnits="userSpaceOnUse" gradientTransform="matrix(-153.63259,0,0,153.63255,355.34774,263.06953)" spreadMethod="pad" id="radialGradient123907">
   <stop offset="0" id="stop123909" stop-color="#f5f6fa"/>
   <stop offset="0.28418" id="stop123911" stop-color="#d5dae0"/>
   <stop offset="0.419922" id="stop123913" stop-color="#fdfdfd"/>
   <stop offset="0.65918" id="stop123915" stop-color="#9fa0a5"/>
   <stop offset="0.869141" id="stop123917" stop-color="#eef3f5"/>
   <stop offset="1" id="stop123919" stop-color="#eef3f5"/>
  </radialGradient>
  <linearGradient x1="1.000549" y1="0.500001" x2="-0.000558" y2="0.500001" spreadMethod="pad" id="linearGradient123891">
   <stop offset="0" id="stop123893" stop-color="#000000"/>
   <stop offset="0.404503" id="stop123895" stop-color="#ffffff"/>
   <stop offset="0.404503" id="stop123897" stop-color="#ffffff"/>
   <stop offset="1" id="stop123899" stop-color="#000000"/>
  </linearGradient>
  <radialGradient fx="0" fy="0" cx="0" cy="0" r="1" gradientUnits="userSpaceOnUse" gradientTransform="matrix(4.6521,15.791587,15.79155,-4.6521,964.17555,257.33123)" spreadMethod="pad" id="radialGradient123881">
   <stop offset="0" id="stop123883" stop-color="#ffffff"/>
   <stop offset="1" id="stop123885" stop-color="#000000"/>
  </radialGradient>
  <radialGradient fx="0" fy="0" cx="0" cy="0" r="1" gradientUnits="userSpaceOnUse" gradientTransform="matrix(2.4931375,8.4632125,8.4631375,-2.493225,960.91522,243.60874)" spreadMethod="pad" id="radialGradient123873">
   <stop offset="0" id="stop123875" stop-color="#ffffff"/>
   <stop offset="1" id="stop123877" stop-color="#000000"/>
  </radialGradient>
  <radialGradient fx="0" fy="0" cx="0" cy="0" r="1" gradientUnits="userSpaceOnUse" gradientTransform="matrix(2.4931375,8.4631375,8.4631375,-2.4932125,948.47487,259.92038)" spreadMethod="pad" id="radialGradient123865">
   <stop offset="0" id="stop123867" stop-color="#ffffff"/>
   <stop offset="1" id="stop123869" stop-color="#000000"/>
  </radialGradient>
  <radialGradient fx="0" fy="0" cx="0" cy="0" r="1" gradientUnits="userSpaceOnUse" gradientTransform="matrix(2.4931375,8.4631375,8.4630625,-2.493175,960.96099,276.93683)" spreadMethod="pad" id="radialGradient123857">
   <stop offset="0" id="stop123859" stop-color="#ffffff"/>
   <stop offset="1" id="stop123861" stop-color="#000000"/>
  </radialGradient>
  <radialGradient fx="0" fy="0" cx="0" cy="0" r="1" gradientUnits="userSpaceOnUse" gradientTransform="matrix(2.4931375,8.463175,8.4631375,-2.493175,979.61355,270.00465)" spreadMethod="pad" id="radialGradient123849">
   <stop offset="0" id="stop123851" stop-color="#ffffff"/>
   <stop offset="1" id="stop123853" stop-color="#000000"/>
  </radialGradient>
  <radialGradient fx="0" fy="0" cx="0" cy="0" r="1" gradientUnits="userSpaceOnUse" gradientTransform="matrix(2.4932875,8.4632875,8.4632125,-2.4931375,980.5696,250.32169)" spreadMethod="pad" id="radialGradient123841">
   <stop offset="0" id="stop123843" stop-color="#ffffff"/>
   <stop offset="1" id="stop123845" stop-color="#000000"/>
  </radialGradient>
  <radialGradient fx="0" fy="0" cx="0" cy="0" r="1" gradientUnits="userSpaceOnUse" gradientTransform="matrix(153.63262,0,0,-153.63266,889.06932,265.39718)" spreadMethod="pad" id="radialGradient123823">
   <stop offset="0" id="stop123825" stop-color="#f5f6fa"/>
   <stop offset="0.28418" id="stop123827" stop-color="#d5dae0"/>
   <stop offset="0.419922" id="stop123829" stop-color="#fdfdfd"/>
   <stop offset="0.65918" id="stop123831" stop-color="#9fa0a5"/>
   <stop offset="0.869141" id="stop123833" stop-color="#eef3f5"/>
   <stop offset="1" id="stop123835" stop-color="#eef3f5"/>
  </radialGradient>
  <linearGradient x1="-0.000555" y1="0.5" x2="1.000552" y2="0.5" spreadMethod="pad" id="linearGradient123807">
   <stop offset="0" id="stop123809" stop-color="#000000"/>
   <stop offset="0.404503" id="stop123811" stop-color="#ffffff"/>
   <stop offset="0.404503" id="stop123813" stop-color="#ffffff"/>
   <stop offset="1" id="stop123815" stop-color="#000000"/>
  </linearGradient>
  <linearGradient x1="0.47702" y1="1.520245" x2="0.481204" y2="-0.178268" spreadMethod="pad" id="linearGradient123773">
   <stop offset="0" id="stop123775" stop-color="#f5f6fa"/>
   <stop offset="0.28418" id="stop123777" stop-color="#d5dae0"/>
   <stop offset="0.419922" id="stop123779" stop-color="#fdfdfd"/>
   <stop offset="0.65918" id="stop123781" stop-color="#9fa0a5"/>
   <stop offset="0.869141" id="stop123783" stop-color="#eef3f5"/>
   <stop offset="1" id="stop123785" stop-color="#eef3f5"/>
  </linearGradient>
  <radialGradient fx="0" fy="0" cx="0" cy="0" r="1" gradientUnits="userSpaceOnUse" gradientTransform="matrix(-64.415175,0,0,-64.415188,420.36479,170.73625)" spreadMethod="pad" id="radialGradient123749">
   <stop offset="0" id="stop123751" stop-color="#f5f6fa"/>
   <stop offset="0.28418" id="stop123753" stop-color="#d5dae0"/>
   <stop offset="0.419922" id="stop123755" stop-color="#fdfdfd"/>
   <stop offset="0.65918" id="stop123757" stop-color="#9fa0a5"/>
   <stop offset="0.869141" id="stop123759" stop-color="#eef3f5"/>
   <stop offset="1" id="stop123761" stop-color="#eef3f5"/>
  </radialGradient>
  <linearGradient x1="0.499988" y1="0.497609" x2="-0.075556" y2="0.497609" spreadMethod="pad" id="linearGradient123699">
   <stop offset="0" id="stop123701" stop-color="#f5f6fa"/>
   <stop offset="0.28418" id="stop123703" stop-color="#d5dae0"/>
   <stop offset="0.419922" id="stop123705" stop-color="#fdfdfd"/>
   <stop offset="0.65918" id="stop123707" stop-color="#9fa0a5"/>
   <stop offset="0.869141" id="stop123709" stop-color="#eef3f5"/>
   <stop offset="1" id="stop123711" stop-color="#eef3f5"/>
  </linearGradient>
  <linearGradient x1="0.498454" y1="0.490838" x2="-0.002895" y2="0.490838" spreadMethod="pad" id="linearGradient123681">
   <stop offset="0" id="stop123683" stop-color="#f5f6fa"/>
   <stop offset="0.28418" id="stop123685" stop-color="#d5dae0"/>
   <stop offset="0.419922" id="stop123687" stop-color="#fdfdfd"/>
   <stop offset="0.65918" id="stop123689" stop-color="#9fa0a5"/>
   <stop offset="0.869141" id="stop123691" stop-color="#eef3f5"/>
   <stop offset="1" id="stop123693" stop-color="#eef3f5"/>
  </linearGradient>
  <linearGradient x1="0.499946" y1="0.50016" x2="-0.00652" y2="0.50016" spreadMethod="pad" id="linearGradient123657">
   <stop offset="0" id="stop123659" stop-color="#f5f6fa"/>
   <stop offset="0.28418" id="stop123661" stop-color="#d5dae0"/>
   <stop offset="0.419922" id="stop123663" stop-color="#fdfdfd"/>
   <stop offset="0.65918" id="stop123665" stop-color="#9fa0a5"/>
   <stop offset="0.869141" id="stop123667" stop-color="#eef3f5"/>
   <stop offset="1" id="stop123669" stop-color="#eef3f5"/>
  </linearGradient>
  <linearGradient x1="0.476689" y1="0.14553" x2="0.476689" y2="0.911281" spreadMethod="pad" id="linearGradient123637">
   <stop offset="0" id="stop123639" stop-color="#f5f6fa"/>
   <stop offset="0.28418" id="stop123641" stop-color="#d5dae0"/>
   <stop offset="0.419922" id="stop123643" stop-color="#fdfdfd"/>
   <stop offset="0.65918" id="stop123645" stop-color="#9fa0a5"/>
   <stop offset="0.869141" id="stop123647" stop-color="#eef3f5"/>
   <stop offset="1" id="stop123649" stop-color="#eef3f5"/>
  </linearGradient>
 </defs>
 <metadata id="metadata84636">image/svg+xml</metadata>
 <g>
  <title>Layer 1</title>
  <g id="layer1">
   <path d="m26.64663,276.05687l-23.5425,0l0,12.0825l23.5425,0.4175l0,-12.5z" id="path123625" stroke-miterlimit="10" stroke-linejoin="round" stroke-width="0.062504" stroke="#000000" fill="none"/>
   <path d="m1225.43042,255.38937c-0.4163,-6.6675 -0.8325,-13.33375 -1.4575,-18.68125c-0.625,-5.34625 -1.4588,-9.375 -3.6813,-12.84625c-2.2212,-3.4725 -5.8325,-6.39 -10.7637,-9.7925c-4.93,-3.4025 -11.18,-7.29125 -19.2363,-11.66625c-8.055,-4.375 -17.9162,-9.23625 -26.1112,-12.91625c-8.1938,-3.68125 -14.7213,-6.18125 -21.0938,-8.8825c-6.3712,-2.70125 -12.5862,-5.60375 -18.8012,-8.50625l20.3125,42.5l27.0825,41.25l47.9175,-6.25l5.8325,5.79125z" id="path123629" stroke-miterlimit="10" stroke-linejoin="round" stroke-width="0.062504" stroke="#000000" fill-rule="nonzero" fill="#d0d4df"/>
   <path d="m391.59789,321.47187l-232.00001,-5l-1,-81l44,-68l61,-20l88.00001,12l71,50l-9,61l-22,51" id="path123631" fill-rule="nonzero" fill="#32353e"/>
   <path d="m1074.59792,325.47187l-226.00003,1l-3,-86l67,-72l110.00003,-4l50,29l15,85l-13,47" id="path123633" fill-rule="nonzero" fill="#32353e"/>
   <path d="m31.02163,287.93187l-27.92375,0.04l0.006,13.71l21.45875,-0.4175l6.45875,-13.3325l0.00025,0z" id="path123635" stroke-miterlimit="10" stroke-linejoin="round" stroke-width="0.062504" stroke="#000000" fill-rule="nonzero" fill="#ffffff"/>
   <path d="m1078.76412,142.05562c-14.0275,-3.055 -28.055,-6.11125 -42.9162,-8.75c-14.8613,-2.63875 -30.5563,-4.86125 -45.27753,-6.5975c-14.7225,-1.73625 -28.4725,-2.98625 -43.33375,-4.16625c-14.86125,-1.18125 -30.83375,-2.29125 -41.38875,-2.98625c-10.55625,-0.695 -15.695,-0.9725 -19.23625,-1.25c-3.54125,-0.2775 -5.48625,-0.555 -7.08375,-1.31875c-1.5975,-0.765 -3.75,-1.20875 -4.7225,-1.76375c-0.97125,-0.555 -1.77,-0.33 -6.145,0.15625c-4.375,0.48625 -11.42375,0.42625 -20.79875,1.19c-9.375,0.76375 -20.07,1.45875 -28.4025,1.875c-8.33375,0.41625 -14.30625,0.55625 -17.8475,0.3475c-3.54125,-0.20875 -4.6525,-0.76375 -11.875,-5.695c-7.2225,-4.93 -20.55625,-14.23625 -37.1525,-25.34625c-16.5975,-11.11125 -36.45875,-24.02875 -53.5425,-35.20875c-17.0825,-11.18125 -31.38875,-20.625 -38.88875,-25.9025c-7.5,-5.27875 -8.19375,-6.38875 -10.625,-7.57c-2.43,-1.18 -6.5975,-2.43 -15.41625,-4.44375c-8.82,-2.015 -22.29125,-4.7925 -37.29125,-6.5975c-15,-1.80625 -31.52875,-2.63875 -47.43125,-2.63875c-15.9025,0 -31.18,0.8325 -42.7775,1.5275c-11.5975,0.695 -19.51375,1.25 -31.18125,2.70875c-11.66625,1.4575 -27.0825,3.81875 -45.13875,6.875c-18.055,3.055 -38.75,6.805 -50.2075,9.0275c-11.45875,2.2225 -13.68125,2.91625 -15.20875,3.68c-1.5275,0.76375 -2.36125,1.5975 -3.82,2.63875c-1.4575,1.0425 -3.54125,2.2925 -8.26375,4.0975c-4.72125,1.80625 -12.08251,4.16625 -21.18001,6.80625c-9.0975,2.63875 -19.93125,5.555 -28.95875,7.985c-9.0275,2.43125 -16.25,4.375 -36.18,10.48625c-19.93125,6.11125 -52.57,16.39 -70.55625,22.15375c-17.98625,5.76375 -21.31875,7.01375 -23.3325,7.5c-2.01375,0.48625 -2.70875,0.2075 -3.26375,-0.07l-1.39,-0.76375c-0.41625,-0.20875 -0.8325,-0.3475 -1.66625,-0.20875c-0.83375,0.13875 -2.08375,0.55625 -3.75,0.76375c-1.66625,0.20875 -3.75,0.20875 -5.20875,-0.0688c-1.4575,-0.2775 -2.29125,-0.83375 -3.81875,-0.625c-1.5275,0.20875 -3.75,1.18 -6.80625,2.43c-3.05499,1.25 -6.94374,2.77875 -12.29124,4.51375c-5.3475,1.73625 -12.1525,3.68125 -20.41625,5.765c-8.26375,2.0825 -17.98626,4.305 -24.02876,5.69375c-6.04125,1.38875 -8.4025,1.94375 -13.81875,4.305c-5.41625,2.36125 -13.88875,6.52875 -20.9725,12.5c-7.0825,5.9725 -12.7775,13.75 -18.4025,21.18125c-5.625,7.43 -11.18,14.51375 -15.41625,20.76375c-4.23625,6.25 -7.15375,11.66625 -10.13875,16.80625c-2.98625,5.13875 -6.0425,10 -7.98625,13.75c-1.945,3.75 -2.77875,6.38875 -3.05625,9.79125c-0.2775,3.4025 0,7.56875 0.625,11.875c0.625,4.305 1.5975,8.75 2.57,12.7075c0.9725,3.95875 1.94375,7.43125 2.7775,10.90375c0.83375,3.47125 1.5275,6.94375 2.01375,10.69375c0.48625,3.75 0.76375,7.7775 1.25,11.945c0.48625,4.16625 1.18125,8.4725 2.1525,11.94375c0.9725,3.4725 2.2225,6.11125 4.1675,7.8475c1.94375,1.73625 4.5825,2.57 7.36125,2.8475c2.7775,0.2775 5.69375,0 23.4025,0.76375c17.7075,0.76375 50.2075,2.57 67.15251,3.68c16.945,1.11125 18.33375,1.52875 19.51375,2.08375c1.18125,0.55625 2.1525,1.25 3.26375,2.63875c1.11125,1.38875 2.36125,3.4725 3.05625,5.625c0.69375,2.15375 0.8325,4.375 0.48625,6.38875c-0.3475,2.015 -1.18125,3.82 -2.015,5.27875c-0.8325,1.4575 -1.66625,2.56875 -2.5,3.68l30.83374,0l7.5,-10c-0.41625,-6.25 -0.83375,-12.5 -0.9025,-19.6525c-0.07,-7.1525 0.20875,-15.20875 0.9725,-22.9175c0.76375,-7.7075 2.01375,-15.06875 3.88875,-21.735c1.875,-6.6675 4.375,-12.64 7.98625,-19.23625c3.61125,-6.5975 8.3325,-13.82 13.61125,-20.07c5.2775,-6.25 11.11,-11.5275 17.7075,-16.11125c6.5975,-4.5825 13.95875,-8.47125 22.01375,-11.73625c8.05625,-3.26375 16.80625,-5.9025 26.11125,-7.22125c9.30625,-1.32 19.1675,-1.32 28.5425,-0.27875c9.375,1.0425 18.26375,3.125 26.18,5.90375c7.91625,2.7775 14.86125,6.25 21.73625,10.97125c6.87501,4.7225 13.68001,10.695 19.09751,16.45875c5.41625,5.76375 9.44375,11.32 12.7775,17.08375c3.33375,5.76375 5.9725,11.73625 7.98625,17.1525c2.01375,5.41625 3.4025,10.2775 4.23625,14.0975c0.8325,3.81875 1.11125,6.59625 1.38875,9.375c11.94375,0.97125 23.88875,1.94375 36.5275,2.84625c12.63875,0.90375 25.9725,1.73625 37.36125,2.98625c11.38875,1.25 20.83375,2.9175 30.13875,4.86125c9.305,1.945 18.4725,4.1675 27.7775,6.11125c9.30625,1.945 18.75,3.61125 31.80625,5c13.055,1.38875 29.72125,2.5 73.3325,3.05625c43.61125,0.555 114.1675,0.555 157.5,0.69375c43.33375,0.13875 59.445,0.4175 75.55625,0.695c-0.1675,-4.05625 -0.33375,-8.11125 0,-13.05625c0.3325,-4.94375 1.16625,-10.7775 2.5825,-16.61125c1.4175,-5.8325 3.4175,-11.66625 5.5,-16.75c2.08375,-5.0825 4.25,-9.41625 7.6675,-14.75c3.41625,-5.3325 8.0825,-11.66625 13.3325,-17.41625c5.25,-5.75 11.08375,-10.91625 16.1675,-14.83375c5.0825,-3.91625 9.41625,-6.5825 14.41625,-9c5,-2.41625 10.66625,-4.5825 18.5,-6.5c7.83375,-1.91625 17.83375,-3.5825 28.08375,-3.91625c10.25,-0.33375 20.75,0.66625 30,2.66625c9.25003,2 17.25003,5 24.50003,8.4175c7.25,3.41625 13.75,7.25 19.3325,11.75c5.5837,4.5 10.25,9.66625 14.5,15.41625c4.25,5.75 8.0837,12.08375 11.3337,19.16625c3.25,7.08375 5.9163,14.9175 7.8338,22.83375c1.9162,7.91625 3.0825,15.91625 3.6662,23.08375c0.5838,7.16625 0.5838,13.5 0.1663,20.0825c-0.4163,6.58375 -1.25,13.4175 -2.75,20.1675c-1.5,6.75 -3.6663,13.41625 -5.8325,20.0825c11.1662,-1 22.3325,-2 28.5,-2.8325c6.1662,-0.83375 7.3325,-1.5 9,-1.83375c1.6662,-0.33375 3.8325,-0.33375 16.1662,-1.25c12.3338,-0.91625 34.8338,-2.75 49.9163,-4.08375c15.0837,-1.3325 22.75,-2.16625 28.3337,-2.5c5.5838,-0.3325 9.0838,-0.16625 12.5,-0.41625c3.4163,-0.25 6.75,-0.91625 9.6663,-2.5c2.9175,-1.58375 5.4175,-4.08375 6.5,-5.41625c1.0837,-1.33375 0.75,-1.5 -0.1663,-3c-0.9162,-1.5 -2.4162,-4.33375 -3.1662,-6.08375c-0.75,-1.75 -0.75,-2.41625 -0.25,-7.91625c0.5,-5.5 1.5,-15.83375 2,-24.58375c0.5,-8.75 0.5,-15.91625 0.25,-21.83375c-0.25,-5.91625 -0.75,-10.5825 -1.9175,-14.0825c-1.1663,-3.5 -3,-5.83375 -5.4163,-8.08375c-2.4162,-2.25 -5.4162,-4.41625 -8.6662,-6.08375c-3.25,-1.66625 -6.75,-2.8325 -11.6675,-4.5825c-4.9163,-1.75 -11.25,-4.08375 -18.0825,-7.08375c-6.8338,-3 -14.1675,-6.66625 -22.1675,-11.16625c-8,-4.5 -16.6663,-9.83375 -24.6663,-15.25c-8,-5.4175 -15.3337,-10.9175 -22,-16.08375c-6.6662,-5.16625 -12.6662,-10 -17.5,-14.16625c-4.8337,-4.1675 -8.5,-7.6675 -10.7225,-9.98625c-2.2212,-2.32 -3,-3.45875 -3.7775,-4.5975l0,0.00005zm-804.16624,-43.74995c-3.33375,-1.11125 -6.6675,-2.2225 -8.61125,-3.4725c-1.945,-1.25 -2.5,-2.63875 -2.5,-4.0275c0,-1.38875 0.555,-2.7775 1.805,-4.58375c1.25,-1.805 3.195,-4.0275 6.6675,-6.66625c3.47125,-2.63875 8.47125,-5.69375 18.61125,-10c10.13875,-4.305 25.41625,-9.86125 48.61,-16.805c23.19501,-6.945 54.30626,-15.27875 80.55626,-21.11125c26.25,-5.83375 47.63875,-9.1675 67.7775,-11.38875c20.13875,-2.2225 39.0275,-3.33375 55.9725,-3.61125c16.94375,-0.27875 31.94375,0.2775 43.88875,1.25c11.945,0.97125 20.83375,2.36125 29.16625,4.5825c8.33375,2.2225 16.11125,5.27875 26.52875,10.83375c10.41625,5.555 23.47125,13.61125 38.61,23.61125c15.14,10 32.36125,21.945 47.64,32.63875c15.2775,10.695 28.61,20.13875 41.94375,29.58375c-11.94375,0 -23.88875,0 -57.7775,-0.83375c-33.88875,-0.83375 -89.7225,-2.5 -137.91625,-3.4725c-48.195,-0.9725 -88.75,-1.25 -125,-2.2225c-36.25,-0.97125 -68.195,-2.63875 -93.89,-4.305c-25.69376,-1.66625 -45.13876,-3.33375 -57.77751,-5c-12.63875,-1.66625 -18.4725,-3.33375 -24.305,-5" id="path123651" fill-rule="nonzero" fill="url(#linearGradient123637)"/>
   <path d="m1078.76412,142.05562c-14.0275,-3.055 -28.055,-6.11125 -42.9162,-8.75c-14.8613,-2.63875 -30.5563,-4.86125 -45.27753,-6.5975c-14.7225,-1.73625 -28.4725,-2.98625 -43.33375,-4.16625c-14.86125,-1.18125 -30.83375,-2.29125 -41.38875,-2.98625c-10.55625,-0.695 -15.695,-0.9725 -19.23625,-1.25c-3.54125,-0.2775 -5.48625,-0.555 -7.08375,-1.31875c-1.5975,-0.765 -3.75,-1.20875 -4.7225,-1.76375c-0.97125,-0.555 -1.77,-0.33 -6.145,0.15625c-4.375,0.48625 -11.42375,0.42625 -20.79875,1.19c-9.375,0.76375 -20.07,1.45875 -28.4025,1.875c-8.33375,0.41625 -14.30625,0.55625 -17.8475,0.3475c-3.54125,-0.20875 -4.6525,-0.76375 -11.875,-5.695c-7.2225,-4.93 -20.55625,-14.23625 -37.1525,-25.34625c-16.5975,-11.11125 -36.45875,-24.02875 -53.5425,-35.20875c-17.0825,-11.18125 -31.38875,-20.625 -38.88875,-25.9025c-7.5,-5.27875 -8.19375,-6.38875 -10.625,-7.57c-2.43,-1.18 -6.5975,-2.43 -15.41625,-4.44375c-8.82,-2.015 -22.29125,-4.7925 -37.29125,-6.5975c-15,-1.80625 -31.52875,-2.63875 -47.43125,-2.63875c-15.9025,0 -31.18,0.8325 -42.7775,1.5275c-11.5975,0.695 -19.51375,1.25 -31.18125,2.70875c-11.66625,1.4575 -27.0825,3.81875 -45.13875,6.875c-18.055,3.055 -38.75,6.805 -50.2075,9.0275c-11.45875,2.2225 -13.68125,2.91625 -15.20875,3.68c-1.5275,0.76375 -2.36125,1.5975 -3.82,2.63875c-1.4575,1.0425 -3.54125,2.2925 -8.26375,4.0975c-4.72125,1.80625 -12.08251,4.16625 -21.18001,6.80625c-9.0975,2.63875 -19.93125,5.555 -28.95875,7.985c-9.0275,2.43125 -16.25,4.375 -36.18,10.48625c-19.93125,6.11125 -52.57,16.39 -70.55625,22.15375c-17.98625,5.76375 -21.31875,7.01375 -23.3325,7.5c-2.01375,0.48625 -2.70875,0.2075 -3.26375,-0.07l-1.39,-0.76375c-0.41625,-0.20875 -0.8325,-0.3475 -1.66625,-0.20875c-0.83375,0.13875 -2.08375,0.55625 -3.75,0.76375c-1.66625,0.20875 -3.75,0.20875 -5.20875,-0.0688c-1.4575,-0.2775 -2.29125,-0.83375 -3.81875,-0.625c-1.5275,0.20875 -3.75,1.18 -6.80625,2.43c-3.05499,1.25 -6.94374,2.77875 -12.29124,4.51375c-5.3475,1.73625 -12.1525,3.68125 -20.41625,5.765c-8.26375,2.0825 -17.98626,4.305 -24.02876,5.69375c-6.04125,1.38875 -8.4025,1.94375 -13.81875,4.305c-5.41625,2.36125 -13.88875,6.52875 -20.9725,12.5c-7.0825,5.9725 -12.7775,13.75 -18.4025,21.18125c-5.625,7.43 -11.18,14.51375 -15.41625,20.76375c-4.23625,6.25 -7.15375,11.66625 -10.13875,16.80625c-2.98625,5.13875 -6.0425,10 -7.98625,13.75c-1.945,3.75 -2.77875,6.38875 -3.05625,9.79125c-0.2775,3.4025 0,7.56875 0.625,11.875c0.625,4.305 1.5975,8.75 2.57,12.7075c0.9725,3.95875 1.94375,7.43125 2.7775,10.90375c0.83375,3.47125 1.5275,6.94375 2.01375,10.69375c0.48625,3.75 0.76375,7.7775 1.25,11.945c0.48625,4.16625 1.18125,8.4725 2.1525,11.94375c0.9725,3.4725 2.2225,6.11125 4.1675,7.8475c1.94375,1.73625 4.5825,2.57 7.36125,2.8475c2.7775,0.2775 5.69375,0 23.4025,0.76375c17.7075,0.76375 50.2075,2.57 67.15251,3.68c16.945,1.11125 18.33375,1.52875 19.51375,2.08375c1.18125,0.55625 2.1525,1.25 3.26375,2.63875c1.11125,1.38875 2.36125,3.4725 3.05625,5.625c0.69375,2.15375 0.8325,4.375 0.48625,6.38875c-0.3475,2.015 -1.18125,3.82 -2.015,5.27875c-0.8325,1.4575 -1.66625,2.56875 -2.5,3.68l30.83374,0l7.5,-10c-0.41625,-6.25 -0.83375,-12.5 -0.9025,-19.6525c-0.07,-7.1525 0.20875,-15.20875 0.9725,-22.9175c0.76375,-7.7075 2.01375,-15.06875 3.88875,-21.735c1.875,-6.6675 4.375,-12.64 7.98625,-19.23625c3.61125,-6.5975 8.3325,-13.82 13.61125,-20.07c5.2775,-6.25 11.11,-11.5275 17.7075,-16.11125c6.5975,-4.5825 13.95875,-8.47125 22.01375,-11.73625c8.05625,-3.26375 16.80625,-5.9025 26.11125,-7.22125c9.30625,-1.32 19.1675,-1.32 28.5425,-0.27875c9.375,1.0425 18.26375,3.125 26.18,5.90375c7.91625,2.7775 14.86125,6.25 21.73625,10.97125c6.87501,4.7225 13.68001,10.695 19.09751,16.45875c5.41625,5.76375 9.44375,11.32 12.7775,17.08375c3.33375,5.76375 5.9725,11.73625 7.98625,17.1525c2.01375,5.41625 3.4025,10.2775 4.23625,14.0975c0.8325,3.81875 1.11125,6.59625 1.38875,9.375c11.94375,0.97125 23.88875,1.94375 36.5275,2.84625c12.63875,0.90375 25.9725,1.73625 37.36125,2.98625c11.38875,1.25 20.83375,2.9175 30.13875,4.86125c9.305,1.945 18.4725,4.1675 27.7775,6.11125c9.30625,1.945 18.75,3.61125 31.80625,5c13.055,1.38875 29.72125,2.5 73.3325,3.05625c43.61125,0.555 114.1675,0.555 157.5,0.69375c43.33375,0.13875 59.445,0.4175 75.55625,0.695c-0.1675,-4.05625 -0.33375,-8.11125 0,-13.05625c0.3325,-4.94375 1.16625,-10.7775 2.5825,-16.61125c1.4175,-5.8325 3.4175,-11.66625 5.5,-16.75c2.08375,-5.0825 4.25,-9.41625 7.6675,-14.75c3.41625,-5.3325 8.0825,-11.66625 13.3325,-17.41625c5.25,-5.75 11.08375,-10.91625 16.1675,-14.83375c5.0825,-3.91625 9.41625,-6.5825 14.41625,-9c5,-2.41625 10.66625,-4.5825 18.5,-6.5c7.83375,-1.91625 17.83375,-3.5825 28.08375,-3.91625c10.25,-0.33375 20.75,0.66625 30,2.66625c9.25003,2 17.25003,5 24.50003,8.4175c7.25,3.41625 13.75,7.25 19.3325,11.75c5.5837,4.5 10.25,9.66625 14.5,15.41625c4.25,5.75 8.0837,12.08375 11.3337,19.16625c3.25,7.08375 5.9163,14.9175 7.8338,22.83375c1.9162,7.91625 3.0825,15.91625 3.6662,23.08375c0.5838,7.16625 0.5838,13.5 0.1663,20.0825c-0.4163,6.58375 -1.25,13.4175 -2.75,20.1675c-1.5,6.75 -3.6663,13.41625 -5.8325,20.0825c11.1662,-1 22.3325,-2 28.5,-2.8325c6.1662,-0.83375 7.3325,-1.5 9,-1.83375c1.6662,-0.33375 3.8325,-0.33375 16.1662,-1.25c12.3338,-0.91625 34.8338,-2.75 49.9163,-4.08375c15.0837,-1.3325 22.75,-2.16625 28.3337,-2.5c5.5838,-0.3325 9.0838,-0.16625 12.5,-0.41625c3.4163,-0.25 6.75,-0.91625 9.6663,-2.5c2.9175,-1.58375 5.4175,-4.08375 6.5,-5.41625c1.0837,-1.33375 0.75,-1.5 -0.1663,-3c-0.9162,-1.5 -2.4162,-4.33375 -3.1662,-6.08375c-0.75,-1.75 -0.75,-2.41625 -0.25,-7.91625c0.5,-5.5 1.5,-15.83375 2,-24.58375c0.5,-8.75 0.5,-15.91625 0.25,-21.83375c-0.25,-5.91625 -0.75,-10.5825 -1.9175,-14.0825c-1.1663,-3.5 -3,-5.83375 -5.4163,-8.08375c-2.4162,-2.25 -5.4162,-4.41625 -8.6662,-6.08375c-3.25,-1.66625 -6.75,-2.8325 -11.6675,-4.5825c-4.9163,-1.75 -11.25,-4.08375 -18.0825,-7.08375c-6.8338,-3 -14.1675,-6.66625 -22.1675,-11.16625c-8,-4.5 -16.6663,-9.83375 -24.6663,-15.25c-8,-5.4175 -15.3337,-10.9175 -22,-16.08375c-6.6662,-5.16625 -12.6662,-10 -17.5,-14.16625c-4.8337,-4.1675 -8.5,-7.6675 -10.7225,-9.98625c-2.2212,-2.32 -3,-3.45875 -3.7775,-4.5975l0,0.00005zm-804.16624,-43.74995c-3.33375,-1.11125 -6.6675,-2.2225 -8.61125,-3.4725c-1.945,-1.25 -2.5,-2.63875 -2.5,-4.0275c0,-1.38875 0.555,-2.7775 1.805,-4.58375c1.25,-1.805 3.195,-4.0275 6.6675,-6.66625c3.47125,-2.63875 8.47125,-5.69375 18.61125,-10c10.13875,-4.305 25.41625,-9.86125 48.61,-16.805c23.19501,-6.945 54.30626,-15.27875 80.55626,-21.11125c26.25,-5.83375 47.63875,-9.1675 67.7775,-11.38875c20.13875,-2.2225 39.0275,-3.33375 55.9725,-3.61125c16.94375,-0.27875 31.94375,0.2775 43.88875,1.25c11.945,0.97125 20.83375,2.36125 29.16625,4.5825c8.33375,2.2225 16.11125,5.27875 26.52875,10.83375c10.41625,5.555 23.47125,13.61125 38.61,23.61125c15.14,10 32.36125,21.945 47.64,32.63875c15.2775,10.695 28.61,20.13875 41.94375,29.58375c-11.94375,0 -23.88875,0 -57.7775,-0.83375c-33.88875,-0.83375 -89.7225,-2.5 -137.91625,-3.4725c-48.195,-0.9725 -88.75,-1.25 -125,-2.2225c-36.25,-0.97125 -68.195,-2.63875 -93.89,-4.305c-25.69376,-1.66625 -45.13876,-3.33375 -57.77751,-5c-12.63875,-1.66625 -18.4725,-3.33375 -24.305,-5z" id="path123653" stroke-miterlimit="10" stroke-linejoin="round" stroke-width="0.050001" stroke="#000000" fill="#ffffff"/>
   <path d="m64.04163,261.74312c3.95875,-0.17375 11.32,-0.2425 18.785,-0.0688c7.465,0.1725 15.035,0.59 22.29126,0.9375c7.2575,0.34625 14.2025,0.625 18.785,1.04125c4.58375,0.41625 6.80625,0.9725 8.57625,1.63125c1.77125,0.66 3.09125,1.42375 4.27125,2.5c1.18,1.0775 2.2225,2.46625 3.125,4.02875c0.9025,1.5625 1.66625,3.29875 2.1525,5.2775c0.48625,1.97875 0.695,4.20125 0.48625,6.14625c-0.20875,1.94375 -0.83375,3.61 -2.1175,5.2075c-1.285,1.5975 -3.23,3.125 -5.20875,4.0275c-1.97875,0.90375 -3.9925,1.18125 -9.6875,1.14625c-5.695,-0.035 -15.07,-0.3825 -26.42376,-0.9725c-11.35375,-0.59 -24.6875,-1.42375 -31.91,-2.0825c-7.22125,-0.66 -8.3325,-1.14625 -9.51375,-2.2225c-1.18,-1.07625 -2.43,-2.74375 -3.4725,-4.375c-1.04125,-1.6325 -1.875,-3.23 -2.32625,-5.035c-0.45125,-1.805 -0.52,-3.81875 -0.34625,-5.3125c0.1725,-1.4925 0.59,-2.465 1.4225,-3.785c0.83375,-1.31875 2.08375,-2.98625 3.16,-4.27c1.07625,-1.285 1.98,-2.1875 2.70875,-2.77875c0.72875,-0.59 1.285,-0.8675 5.2425,-1.04125l0,0.00005z" id="path123655" stroke-miterlimit="10" stroke-linejoin="round" stroke-width="0.062504" stroke="#000000" fill-rule="nonzero" fill="#ffffff"/>
   <path d="m385.15289,263.86187c-0.555,3.3325 -0.555,10.13875 -1.11125,18.61c-0.555,8.4725 -1.66625,18.61125 -2.43,25.14c-0.76375,6.5275 -1.18125,9.44375 -1.25,12.43c-0.07,2.98625 0.20875,6.04125 0.625,7.70875c0.41625,1.66625 0.9725,1.94375 20.69375,1.73625c19.7225,-0.20875 58.61125,-0.90375 85.27875,-1.52875c26.66625,-0.625 41.11125,-1.18 63.54125,-1.66625c22.43,-0.48625 52.8475,-0.9025 77.08375,-0.9025c24.23625,0 42.29125,0.41625 61.4575,1.11125c19.1675,0.69375 39.445,1.66625 58.195,2.63875c18.75,0.9725 35.9725,1.94375 50.41625,2.5c14.445,0.555 26.11125,0.69375 34.30625,0.9025c8.19375,0.20875 12.91625,0.48625 16.04125,0.3475c3.125,-0.13875 4.6525,-0.695 5.9025,-1.875c1.25,-1.18125 2.2225,-2.98625 2.63875,-10.4175c0.4175,-7.43 0.27875,-20.485 0.07,-27.1525c-0.20875,-6.66625 -0.48625,-6.94375 -1.04125,-7.0825c-0.55625,-0.14 -1.39,-0.14 -8.95875,-0.27875c-7.57,-0.13875 -21.875,-0.41625 -29.375,-0.35375c-7.5,0.0625 -8.195,0.46625 -9.70875,0.58375c-1.51375,0.11875 -3.8475,-0.0487 -42.18,-0.18c-38.33375,-0.1325 -112.6675,-0.23 -153.7925,-0.62625c-41.125,-0.395 -49.04125,-1.09 -58.9025,-2.54875c-9.86125,-1.4575 -21.66625,-3.68 -34.79125,-6.295c-13.125,-2.61375 -27.57,-5.62125 -39.58375,-7.6975c-12.01375,-2.07625 -21.5975,-3.22125 -32.01375,-4.14875c-10.41625,-0.9275 -21.66625,-1.63625 -30.0525,-2.20875c-8.385,-0.5725 -13.90625,-1.01 -18.14125,-1.2875c-4.23625,-0.27875 -7.1875,-0.39625 -9.21875,-0.525c-2.03125,-0.12875 -3.1425,-0.2675 -3.69875,3.06625" id="path123671" fill-rule="nonzero" fill="url(#linearGradient123657)"/>
   <path d="m386.15289,263.86187c-0.555,3.3325 -0.555,10.13875 -1.11125,18.61c-0.555,8.4725 -1.66625,18.61125 -2.43,25.14c-0.76375,6.5275 -1.18125,9.44375 -1.25,12.43c-0.07,2.98625 0.20875,6.04125 0.625,7.70875c0.41625,1.66625 0.9725,1.94375 20.69375,1.73625c19.7225,-0.20875 58.61125,-0.90375 85.27875,-1.52875c26.66625,-0.625 41.11125,-1.18 63.54125,-1.66625c22.43,-0.48625 52.8475,-0.9025 77.08375,-0.9025c24.23625,0 42.29125,0.41625 61.4575,1.11125c19.1675,0.69375 39.445,1.66625 58.195,2.63875c18.75,0.9725 35.9725,1.94375 50.41625,2.5c14.445,0.555 26.11125,0.69375 34.30625,0.9025c8.19375,0.20875 12.91625,0.48625 16.04125,0.3475c3.125,-0.13875 4.6525,-0.695 5.9025,-1.875c1.25,-1.18125 2.2225,-2.98625 2.63875,-10.4175c0.4175,-7.43 0.27875,-20.485 0.07,-27.1525c-0.20875,-6.66625 -0.48625,-6.94375 -1.04125,-7.0825c-0.55625,-0.14 -1.39,-0.14 -8.95875,-0.27875c-7.57,-0.13875 -21.875,-0.41625 -29.375,-0.35375c-7.5,0.0625 -8.195,0.46625 -9.70875,0.58375c-1.51375,0.11875 -3.8475,-0.0487 -42.18,-0.18c-38.33375,-0.1325 -112.6675,-0.23125 -153.7925,-0.62625c-41.125,-0.395 -49.04125,-1.09 -58.9025,-2.54875c-9.86125,-1.45875 -21.66625,-3.68 -34.79125,-6.295c-13.125,-2.61375 -27.57,-5.62125 -39.58375,-7.6975c-12.01375,-2.07625 -21.5975,-3.22125 -32.01375,-4.14875c-10.41625,-0.9275 -21.66625,-1.63625 -30.0525,-2.20875c-8.385,-0.5725 -13.90625,-1.01 -18.14125,-1.2875c-4.23625,-0.27875 -7.1875,-0.39625 -9.21875,-0.525c-2.03125,-0.12875 -3.1425,-0.2675 -3.69875,3.06625z" id="path123673" stroke-miterlimit="10" stroke-linejoin="round" stroke-width="0.062504" stroke="#000000" fill="#ffffff"/>
   <path d="m274.59788,98.30562c5.8325,1.66625 11.66625,3.33375 24.305,5c12.63875,1.66625 32.08375,3.33375 57.77751,5c25.695,1.66625 57.64,3.33375 93.89,4.305c36.24875,0.9725 76.805,1.25 125,2.2225c48.19375,0.9725 104.0275,2.63875 137.91625,3.4725c33.88875,0.83375 45.83375,0.83375 57.7775,0.83375c-13.33375,-9.445 -26.66625,-18.88875 -41.94375,-29.58375c-15.27875,-10.69375 -32.5,-22.63875 -47.64,-32.63875c-15.13875,-10 -28.19375,-18.05625 -38.61,-23.61125c-10.4175,-5.555 -18.195,-8.61125 -26.52875,-10.83375c-8.3325,-2.22125 -17.22125,-3.61125 -29.16625,-4.5825c-11.945,-0.9725 -26.945,-1.52875 -43.88875,-1.25c-16.945,0.2775 -35.83375,1.38875 -55.9725,3.61125c-20.13875,2.22125 -41.5275,5.555 -67.7775,11.38875c-26.25,5.8325 -57.36125,14.16625 -80.55626,21.11125c-23.19375,6.94375 -38.47125,12.5 -48.61,16.805c-10.14,4.305 -15.14,7.36125 -18.61125,10c-3.4725,2.63875 -5.4175,4.86125 -6.6675,6.66625c-1.25,1.80625 -1.805,3.195 -1.805,4.58375c0,1.38875 0.555,2.7775 2.5,4.0275c1.94375,1.25 5.2775,2.36125 8.61125,3.4725z" id="path123675" stroke-miterlimit="10" stroke-linejoin="round" stroke-width="3.749988" stroke="#000000" fill-rule="nonzero" fill="#000000"/>
   <path d="m684.59789,99.55562c-13.05625,-9.0275 -26.11125,-18.055 -39.0275,-26.18c-12.9175,-8.125 -25.695,-15.3475 -35.9725,-19.375c-10.2775,-4.02875 -18.05625,-4.86125 -27.08375,-5.83375c-9.0275,-0.9725 -19.305,-2.08375 -29.44375,-2.36125c-10.14,-0.2775 -20.14,0.2775 -34.7225,1.38875c-14.58375,1.11125 -33.75,2.7775 -43.88875,4.0275c-10.13875,1.25 -11.25,2.08375 -12.36125,2.9175c2.5,0.8325 5,1.66625 6.5275,2.36125c1.5275,0.69375 2.08375,1.25 3.4725,5.69375c1.38875,4.445 3.61125,12.7775 6.20875,21.595c2.59875,8.81625 5.57375,18.11625 8.5475,27.41625l191.6675,4.16625l6.07625,-15.81625" id="path123677" fill-rule="nonzero" fill="#000000"/>
   <path d="m844.38914,116.78562c-5.81625,0.4425 -11.63125,0.885 -18.9925,1.3125c-7.36125,0.42625 -16.2675,0.8375 -21.86625,0.495c-5.6,-0.3425 -7.89125,-1.44 -20.70375,-9.98125c-12.8125,-8.54125 -36.14625,-24.52875 -58.1775,-39.3025c-22.03125,-14.77375 -42.76,-28.33625 -54.3225,-35.95125c-11.5625,-7.61375 -13.95875,-9.28125 -15.365,-10.52c-1.40625,-1.24 -1.8225,-2.0525 -2.03125,-3.085c-0.2075,-1.03125 -0.2075,-2.28125 0.4175,-3.11375c0.625,-0.83375 1.875,-1.25 3.3325,-1.5625c1.45875,-0.3125 3.125,-0.52125 4.48,-0.4175c1.35375,0.105 2.395,0.52125 15.9375,7.8125c13.54125,7.2925 39.5825,21.45875 69.54875,38.32375c29.965,16.865 63.85375,36.4275 97.7425,55.99z" id="path123679" stroke-miterlimit="10" stroke-linejoin="round" stroke-width="0.062504" stroke="#000000" fill-rule="nonzero" fill="#000000"/>
   <path d="m664.03539,14.72312c-9.98,-2.9175 -19.95875,-5.83375 -32.44875,-8.20875c-12.48875,-2.375 -27.48875,-4.20875 -41.98875,-5.2925c-14.5,-1.0825 -28.5,-1.41625 -44.58375,-1c-16.08375,0.4175 -34.25,1.58375 -51,3.25c-16.75,1.6675 -32.08375,3.83375 -46.16625,6c-14.08375,2.1675 -26.9175,4.33375 -38.1675,6.4175c-11.25,2.0825 -20.91625,4.0825 -27.75,5.5c-6.8325,1.41625 -10.8325,2.25 -13.0825,2.8325c-2.25,0.58375 -2.75,0.9175 -3.83375,2.08375c-1.08375,1.16625 -2.75,3.16625 -4.41625,5.16625c6.66625,-1.8325 13.3325,-3.66625 24.91625,-6.25c11.58375,-2.5825 28.08375,-5.91625 43.08375,-8.5c15,-2.5825 28.5,-4.41625 41.5825,-5.91625c13.08375,-1.5 25.75,-2.66625 37.6675,-3.58375c11.91625,-0.91625 23.0825,-1.5825 33.0825,-1.91625c10,-0.33375 18.83375,-0.33375 28,0.0837c9.1675,0.41625 18.6675,1.25 31.08375,3.16625c12.41625,1.91625 27.75,4.91625 37.3225,7.4275c9.57375,2.51 13.38625,4.53125 17.19875,6.5525c-0.77125,-1.8125 -1.5425,-3.625 -1.5,-4.79125c0.0412,-1.1675 0.895,-1.6875 1.9575,-2.125c1.0625,-0.43875 2.33375,-0.7925 3.875,-0.9275c1.5425,-0.13625 3.355,-0.0525 5.1675,0.0312" id="path123695" fill-rule="nonzero" fill="url(#linearGradient123681)"/>
   <path d="m664.03539,14.72312c-9.98,-2.9175 -19.95875,-5.83375 -32.44875,-8.20875c-12.48875,-2.375 -27.48875,-4.20875 -41.98875,-5.2925c-14.5,-1.0825 -28.5,-1.41625 -44.58375,-1c-16.08375,0.4175 -34.25,1.58375 -51,3.25c-16.75,1.6675 -32.08375,3.83375 -46.16625,6c-14.08375,2.1675 -26.9175,4.33375 -38.1675,6.4175c-11.25,2.0825 -20.91625,4.0825 -27.75,5.5c-6.8325,1.41625 -10.8325,2.25 -13.0825,2.8325c-2.25,0.58375 -2.75,0.9175 -3.83375,2.08375c-1.08375,1.16625 -2.75,3.16625 -4.41625,5.16625c6.66625,-1.8325 13.3325,-3.66625 24.91625,-6.25c11.58375,-2.5825 28.08375,-5.91625 43.08375,-8.5c15,-2.5825 28.5,-4.41625 41.5825,-5.91625c13.08375,-1.5 25.75,-2.66625 37.6675,-3.58375c11.91625,-0.91625 23.0825,-1.5825 33.0825,-1.91625c10,-0.33375 18.83375,-0.33375 28,0.0837c9.1675,0.41625 18.6675,1.25 31.08375,3.16625c12.41625,1.91625 27.75,4.91625 37.3225,7.4275c9.57375,2.51 13.38625,4.53125 17.19875,6.5525c-0.77125,-1.8125 -1.5425,-3.625 -1.5,-4.79125c0.0412,-1.1675 0.895,-1.6875 1.9575,-2.125c1.0625,-0.43875 2.33375,-0.7925 3.875,-0.9275c1.5425,-0.13625 3.355,-0.0525 5.1675,0.0312l0,0.0001z" id="path123697" stroke-miterlimit="10" stroke-linejoin="round" stroke-width="0.062504" stroke="#000000" fill="#ffffff"/>
   <path d="m366.09789,23.47187c-6.1675,1.33375 -12.33375,2.6675 -17.5,3.9175c-5.16751,1.25 -9.33376,2.41625 -11.41751,3.16625c-2.0825,0.75 -2.0825,1.08375 -2.0825,2.08375c0,1 0,2.66625 0.26375,4.18c0.26375,1.51375 0.79125,2.87625 1.31875,4.2375c3.68125,-0.9725 7.36125,-1.945 11.39001,-3.23c4.0275,-1.28375 8.4025,-2.88125 11.215,-4.66c2.8125,-1.7775 4.0625,-3.73625 4.9375,-5.3825c0.875,-1.645 1.375,-2.97875 1.875,-4.3125" id="path123713" fill-rule="nonzero" fill="url(#linearGradient123699)"/>
   <path d="m366.09789,23.47187c-6.1675,1.33375 -12.33375,2.6675 -17.5,3.9175c-5.16751,1.25 -9.33376,2.41625 -11.41751,3.16625c-2.0825,0.75 -2.0825,1.08375 -2.0825,2.08375c0,1 0,2.66625 0.26375,4.18c0.26375,1.51375 0.79125,2.87625 1.31875,4.2375c3.68125,-0.9725 7.36125,-1.945 11.39001,-3.23c4.0275,-1.28375 8.4025,-2.88125 11.215,-4.66c2.8125,-1.7775 4.0625,-3.73625 4.9375,-5.3825c0.875,-1.645 1.375,-2.97875 1.875,-4.3125z" id="path123715" stroke-miterlimit="10" stroke-linejoin="round" stroke-width="0.062504" stroke="#000000" fill="#ffffff"/>
   <path d="m217.09788,72.97187l116.66625,-34.66625l0.83375,3.49125l-116.5,34.175l-1,-3" id="path123717" fill-rule="nonzero" fill="#2b2a2f"/>
   <path d="m264.09788,51.47187c-7.6675,1.5 -15.33375,3 -23.25,5.33375c-7.9175,2.33375 -16.08375,5.5 -23.5,8.58375c-7.4175,3.0825 -14.08375,6.0825 -20.75,9.0825" id="path123719" stroke-miterlimit="10" stroke-linejoin="round" stroke-width="0.624997" stroke="#000000" fill="none"/>
   <path d="m217.59788,72.47187c6.8325,-3 13.66625,-6 21.5825,-9c7.9175,-3 16.9175,-6 24.9175,-8.5825c8,-2.58375 15,-4.75 21.91625,-6.6675c6.91625,-1.91625 13.75,-3.5825 20.33375,-4.91625c6.5825,-1.33375 12.91625,-2.33375 19.25,-3.33375" id="path123721" stroke-miterlimit="10" stroke-linejoin="round" stroke-width="0.062504" stroke="#000000" fill="none"/>
   <path d="m278.59788,49.47187l-15,1.5l2.5,3.5l12.5,-5" id="path123723" fill-rule="nonzero" fill="#2b2a2f"/>
   <path d="m196.59788,74.47187l-11,0.5l-14,2.5l-12.5,2l-2.5,-0.5l-10.28125,2.09375l2.03125,8.90625l3.4375,-0.78125l0.9375,3.4375l4.375,-0.65625l-0.78125,-3.5625l3.75,-0.9375l-0.9375,-3.4375l3.4375,-1.40625l17.03125,-5.15625l12.5,-1.5l5,-1.5" id="path123725" stroke-miterlimit="10" stroke-linejoin="round" stroke-width="0.062504" stroke="#000000" fill-rule="nonzero" fill="#2b2a2f"/>
   <path d="m158.09788,255.09812c-3.33375,-0.375 -6.6675,-0.75 -16.16749,-1.105c-9.5,-0.35375 -25.16625,-0.6875 -37.66625,-1.10375c-12.50001,-0.4175 -21.83376,-0.9175 -28.50001,-1.25c-6.66625,-0.33375 -10.66625,-0.5 -13.83375,-0.5c-3.16625,0 -5.5,0.16625 -7.8325,0.75c-2.33375,0.5825 -4.6675,1.5825 -6.6675,2.66625c-2,1.08375 -3.66625,2.25 -5.16625,3.58375c-1.5,1.3325 -2.83375,2.8325 -4.41625,5.41625c-1.58375,2.58375 -3.4175,6.25 -5.1675,9.5c-1.75,3.25 -3.41625,6.08375 -5.0675,8.47875c-1.65125,2.39625 -3.28875,4.355 -4.925,6.31375" id="path123727" stroke-miterlimit="10" stroke-linejoin="round" stroke-width="0.050001" stroke="#000000" fill="none"/>
   <path d="m215.59788,180.09812c-11.375,-0.25 -22.75,-0.5 -39.27125,-0.9375c-16.52125,-0.43875 -38.18749,-1.06375 -50.58374,-1.58375c-12.395,-0.52125 -15.52,-0.9375 -18.645,-1.355" id="path123729" stroke-miterlimit="10" stroke-linejoin="round" stroke-width="0.050001" stroke="#000000" fill="none"/>
   <path d="m365.09789,204.47187c-6.1675,-6 -12.33375,-12 -18.25,-16.66625c-5.91751,-4.66625 -11.58376,-8 -18.08376,-11.16625c-6.5,-3.1675 -13.83375,-6.1675 -21.58375,-8.4175c-7.75,-2.25 -15.91625,-3.75 -25.25,-3.8325c-9.3325,-0.0838 -19.8325,1.25 -30.0825,3.5825c-10.25,2.33375 -20.25,5.6675 -28.4175,9.1675c-8.16625,3.5 -14.5,7.16625 -21.0825,12.0825c-6.58375,4.9175 -13.4175,11.08375 -19,17.83375c-5.58375,6.75 -9.9175,14.08375 -13.5,21.16625c-3.58375,7.08375 -6.4175,13.9175 -8.9175,20.1675c-2.5,6.25 -4.66625,11.91625 -7.3325,18.25c-2.6675,6.3325 -5.83375,13.3325 -8.5,18.0825c-2.66749,4.75 -4.83374,7.25 -6.40249,8.8125c-1.5675,1.56375 -2.5375,2.18875 -3.5075,2.81375" id="path123731" stroke-miterlimit="10" stroke-linejoin="round" stroke-width="0.050001" stroke="#000000" fill="none"/>
   <path d="m124.59789,152.97187l-91.00001,-1.5l-17,24.5l89.00001,0l19,-23z" id="path123733" stroke-miterlimit="10" stroke-linejoin="round" stroke-width="0.062504" stroke="#323535" fill-rule="nonzero" fill="#ffffff"/>
   <path d="m119.80539,119.50312c-2.91625,-0.5725 -8.125,-1.30125 -14.11375,-2.29125c-5.99001,-0.99 -12.76126,-2.24 -17.39626,-3.22875c-4.635,-0.99 -7.135,-1.71875 -9.3225,-2.8125c-2.1875,-1.09375 -4.0625,-2.5525 -5.26125,-3.8025c-1.1975,-1.25 -1.71875,-2.29125 -2.0825,-2.8125c-0.365,-0.52125 -0.57375,-0.52125 -2.9175,-0.26c-2.34375,0.26 -6.8225,0.78125 -11.35375,0.67625c-4.53125,-0.10375 -9.115,-0.8325 -13.85375,-2.1875c-4.74,-1.35375 -9.63625,-3.3325 -14.1675,-5.3125c-4.53125,-1.97875 -8.6975,-3.9575 -11.25,-5.15625c-2.55125,-1.1975 -3.48875,-1.61375 -4.27,-1.61375c-0.78125,0 -1.40625,0.41625 -1.355,1.4575c0.0525,1.0425 0.78125,2.70875 3.28125,5.15625c2.5,2.44875 6.77125,5.6775 11.3025,8.59375c4.53125,2.9175 9.3225,5.52125 14.47875,7.8125c5.15625,2.2925 10.6775,4.27125 16.5625,5.99c5.88625,1.71875 12.13625,3.1775 19.0625,4.0625c6.9275,0.885 14.53125,1.1975 21.355,1.1975c6.82251,0 12.86376,-0.3125 16.61376,-0.5725c3.75,-0.26 5.20875,-0.46875 6.3025,-1.04125c1.09375,-0.57375 1.8225,-1.51125 1.875,-2.1875c0.0525,-0.6775 -0.5725,-1.09375 -3.49,-1.6675z" id="path123735" stroke-miterlimit="10" stroke-linejoin="round" stroke-width="0.062504" stroke="#000000" fill-rule="nonzero" fill="none"/>
   <path d="m20.53538,104.92062c-0.73,0.885 -1.14625,3.59375 -0.78125,5.9375c0.36375,2.34375 1.51,4.3225 3.22875,6.51c1.71875,2.1875 4.01,4.58375 5.99,7.03125c1.97875,2.4475 3.645,4.9475 4.9475,7.29125c1.3025,2.34375 2.24,4.53125 2.865,6.615c0.625,2.08375 0.9375,4.0625 2.86375,4.16625c1.9275,0.105 5.46875,-1.66625 9.48,-4.0625c4.01,-2.395 8.48875,-5.41625 11.51,-7.5c3.02125,-2.0825 4.58375,-3.22875 5.15625,-3.80125c0.5725,-0.57375 0.15625,-0.57375 -1.9275,-1.0425c-2.0825,-0.46875 -5.8325,-1.40625 -10.10375,-2.8125c-4.27125,-1.40625 -9.0625,-3.28125 -13.59375,-5.5725c-4.53125,-2.29125 -8.8025,-5 -11.5625,-7.03125c-2.76,-2.03125 -4.01,-3.385 -5.15625,-4.53125c-1.14625,-1.14625 -2.1875,-2.08375 -2.91625,-1.1975z" id="path123737" stroke-miterlimit="10" stroke-linejoin="round" stroke-width="0.062504" stroke="#000000" fill-rule="nonzero" fill="#ffffff"/>
   <path d="m124.28539,152.47187c1.35375,-1.77 2.7075,-3.54125 3.4375,-5.05125c0.72875,-1.51125 0.8325,-2.76125 0.36375,-4.115c-0.46875,-1.35375 -1.51,-2.8125 -3.75,-4.01c-2.23875,-1.19875 -5.67625,-2.13625 -9.53125,-3.1775c-3.85375,-1.04125 -8.125,-2.1875 -12.135,-3.1775c-4.01001,-0.98875 -7.76001,-1.8225 -10.41626,-2.55125c-2.65625,-0.73 -4.21875,-1.355 -5.78125,-1.98" id="path123739" stroke-miterlimit="10" stroke-linejoin="round" stroke-width="0.062504" stroke="#000000" fill="none"/>
   <path d="m115.84789,151.84687c0.41625,-1.04125 0.8325,-2.0825 0.98875,-3.02c0.15625,-0.9375 0.0525,-1.77125 -0.9375,-2.70875c-0.98875,-0.9375 -2.86375,-1.97875 -5.2075,-3.385c-2.34375,-1.40625 -5.15625,-3.1775 -8.1775,-4.58375c-3.02126,-1.40625 -6.25001,-2.4475 -9.94751,-3.49c-3.69875,-1.04125 -7.865,-2.0825 -11.40625,-3.02c-3.5425,-0.9375 -6.45875,-1.77125 -9.21875,-2.39625c-2.76125,-0.625 -5.365,-1.04125 -7.96875,-1.45875" id="path123741" stroke-miterlimit="10" stroke-linejoin="round" stroke-width="0.062504" stroke="#000000" fill="none"/>
   <path d="m501.48201,284.30562c-5.48625,-1.805 -13.125,-4.0275 -23.125,-6.38875c-10,-2.36125 -22.36125,-4.86125 -32.70875,-6.66625c-10.3475,-1.80625 -18.68,-2.9175 -24.0275,-3.33375c-5.3475,-0.41625 -7.70875,-0.13875 -9.7225,0.555c-2.01375,0.695 -3.68,1.80625 -5,3.5425c-1.31875,1.73625 -2.29125,4.0975 -2.7775,6.11125c-0.48625,2.01375 -0.48625,3.68 -0.20875,6.04125c0.27875,2.36125 0.83375,5.41625 2.36125,8.54125c1.5275,3.125 4.0275,6.32 6.45875,8.75c2.43,2.43125 4.79125,4.0975 9.375,5.4175c4.58375,1.31875 11.38875,2.29125 18.4025,2.91625c7.01375,0.625 14.23625,0.9025 23.4025,0.9025c9.1675,0 20.27875,-0.2775 37.77875,-0.69375c17.5,-0.4175 41.38875,-0.9725 65.34625,-1.32c23.95875,-0.3475 47.98625,-0.48625 71.875,-0.41625c23.88875,0.0687 47.63875,0.34625 73.61125,0.9025c25.9725,0.555 54.1675,1.38875 76.45875,1.805c22.29125,0.4175 38.68,0.4175 49.58375,0.695c10.9025,0.2775 16.31875,0.83375 18.68,0.83375c2.36125,0 1.66625,-0.55625 -6.66625,-1.32c-8.33375,-0.76375 -24.30625,-1.73625 -52.63875,-3.125c-28.33375,-1.38875 -69.02875,-3.19375 -112.15375,-5.69375c-43.125,-2.5 -88.68,-5.695 -117.7775,-8.05625c-29.0975,-2.36125 -41.73625,-3.88875 -49.7225,-5.3475c-7.98625,-1.4575 -11.31875,-2.84625 -16.805,-4.6525z" id="path123743" stroke-miterlimit="10" stroke-linejoin="round" stroke-width="0.062504" stroke="#000000" fill="#ffffff"/>
   <path d="m493.90289,290.52812c-4.44375,-1.25 -12.5,-3.195 -21.94375,-5.41625c-9.445,-2.2225 -20.27875,-4.7225 -29.30625,-6.52875c-9.0275,-1.805 -16.25,-2.91625 -21.31875,-3.4025c-5.07,-0.48625 -7.98625,-0.3475 -10.07,0.55625c-2.08375,0.9025 -3.33375,2.56875 -4.0975,4.79125c-0.76375,2.2225 -1.04125,5 -0.625,7.56875c0.4175,2.57 1.52875,4.93125 2.70875,7.15375c1.18,2.22125 2.43,4.305 4.0275,6.31875c1.5975,2.01375 3.5425,3.95875 6.5975,5.3475c3.055,1.38875 7.2225,2.2225 14.58375,2.7775c7.36125,0.55625 17.91625,0.83375 26.4575,0.9025c8.5425,0.07 15.07,-0.0688 19.86125,-0.41625c4.7925,-0.3475 7.8475,-0.9025 10.83375,-2.36125c2.98625,-1.4575 5.9025,-3.81875 7.36125,-5.69375c1.4575,-1.875 1.4575,-3.26375 1.38875,-4.7225c-0.07,-1.45875 -0.20875,-2.98625 -0.695,-4.0275c-0.48625,-1.0425 -1.31875,-1.5975 -5.76375,-2.8475z" id="path123745" stroke-miterlimit="10" stroke-linejoin="round" stroke-width="0.062504" stroke="#000000" fill="#ffffff"/>
   <path d="m484.09789,288.22187c-2.6675,-0.5825 -5.33375,-1.16625 -7.6675,-1.7075c-2.3325,-0.5425 -4.3325,-1.0425 -6.3325,-1.5425c-6.4175,-1.5 -12.83375,-3 -19,-4.375c-6.1675,-1.375 -12.08375,-2.625 -17.4175,-3.5825c-5.3325,-0.95875 -10.0825,-1.625 -13.625,-1.9175c-3.54125,-0.29125 -5.875,-0.2075 -7.7075,0.4175c-1.83375,0.625 -3.1675,1.79125 -4.08375,3.125c-0.91625,1.3325 -1.41625,2.8325 -1.58375,4.4575c-0.16625,1.625 0,3.375 0.33375,5.0425c0.33375,1.66625 0.83375,3.25 1.54125,5c0.70875,1.75 1.625,3.66625 2.6675,5.3325c1.04125,1.6675 2.2075,3.08375 2.79125,3.70875c0.58375,0.625 0.58375,0.45875 0.75,0.0412c0.16625,-0.41625 0.5,-1.0825 0.41625,-1.79125c-0.0825,-0.70875 -0.5825,-1.45875 -1.3325,-2.625c-0.75,-1.16625 -1.75,-2.75 -2.5425,-4.41625c-0.79125,-1.6675 -1.375,-3.4175 -1.625,-5.20875c-0.25,-1.79125 -0.16625,-3.625 0.0838,-5.20875c0.25,-1.5825 0.66625,-2.91625 1.625,-3.7075c0.95875,-0.7925 2.45875,-1.0425 4.95875,-1.0425c2.5,0 6,0.25 9.9575,0.58375c3.95875,0.33375 8.375,0.75 13,1.41625c4.625,0.6675 9.45875,1.58375 14.33375,2.5425c4.875,0.9575 9.79125,1.9575 14.875,2.875c5.08375,0.91625 10.33375,1.75 15.58375,2.5825l-0.00005,0.00005z" id="path123747" stroke-miterlimit="10" stroke-linejoin="round" stroke-width="0.062504" stroke="#000000" fill-rule="nonzero" fill="#2b2a2f"/>
   <path d="m441.26414,131.63937c-0.66625,-1.6675 -2.16625,-3.6675 -5.25,-5c-3.08375,-1.33375 -7.75,-2 -13.33375,-2.25c-5.5825,-0.25 -12.0825,-0.0837 -18.0825,0.3325c-6,0.4175 -11.5,1.08375 -15.58375,2.33375c-4.08375,1.25 -6.75,3.08375 -8.66625,5.16625c-1.9175,2.08375 -3.08375,4.4175 -3.58375,7.5c-0.5,3.08375 -0.33375,6.9175 0.83375,11.9175c1.16625,5 3.3325,11.16625 6.3325,17.5c3,6.3325 6.83375,12.8325 11,18.25c4.1675,5.41625 8.6675,9.75 14,13.3325c5.33375,3.58375 11.5,6.4175 17.33375,8.75c5.83375,2.33375 11.33375,4.1675 16.58375,5.4175c5.25,1.25 10.25,1.91625 13.5,1.75c3.25,-0.1675 4.75,-1.1675 5.8325,-2.75c1.08375,-1.58375 1.75,-3.75 1.58375,-5.83375c-0.16625,-2.08375 -1.16625,-4.08375 -3.16625,-7.5c-2,-3.41625 -5,-8.25 -7.6675,-13.83375c-2.66625,-5.5825 -5,-11.91625 -6.91625,-17.5825c-1.91625,-5.6675 -3.41625,-10.6675 -4.25,-14.75c-0.83375,-4.08375 -1,-7.25 -0.91625,-10.1675c0.0825,-2.91625 0.41625,-5.5825 0.66625,-7.5825c0.25,-2 0.41625,-3.33375 -0.25,-5" id="path123763" fill-rule="nonzero" fill="url(#radialGradient123749)"/>
   <path d="m441.26414,131.63937c-0.66625,-1.6675 -2.16625,-3.6675 -5.25,-5c-3.08375,-1.33375 -7.75,-2 -13.33375,-2.25c-5.5825,-0.25 -12.0825,-0.0837 -18.0825,0.3325c-6,0.4175 -11.5,1.08375 -15.58375,2.33375c-4.08375,1.25 -6.75,3.08375 -8.66625,5.16625c-1.9175,2.08375 -3.08375,4.4175 -3.58375,7.5c-0.5,3.08375 -0.33375,6.9175 0.83375,11.9175c1.16625,5 3.3325,11.16625 6.3325,17.5c3,6.3325 6.83375,12.8325 11,18.25c4.1675,5.41625 8.6675,9.75 14,13.3325c5.33375,3.58375 11.5,6.4175 17.33375,8.75c5.83375,2.33375 11.33375,4.1675 16.58375,5.4175c5.25,1.25 10.25,1.91625 13.5,1.75c3.25,-0.1675 4.75,-1.1675 5.8325,-2.75c1.08375,-1.58375 1.75,-3.75 1.58375,-5.83375c-0.16625,-2.08375 -1.16625,-4.08375 -3.16625,-7.5c-2,-3.41625 -5,-8.25 -7.6675,-13.83375c-2.66625,-5.5825 -5,-11.91625 -6.91625,-17.5825c-1.91625,-5.6675 -3.41625,-10.6675 -4.25,-14.75c-0.83375,-4.08375 -1,-7.25 -0.91625,-10.1675c0.0825,-2.91625 0.41625,-5.5825 0.66625,-7.5825c0.25,-2 0.41625,-3.33375 -0.25,-5z" id="path123765" stroke-miterlimit="10" stroke-linejoin="round" stroke-width="0.062504" stroke="#000000" fill="#ffffff"/>
   <path d="m401.440248,182.91062c1.9025,0.83 6.26375,3.13875 8.1,3.895c2.83375,1.16625 5.5,2.16625 7.25,2.75c1.75,0.58375 2.58375,0.75 2.5,0.16625c-0.0825,-0.5825 -1.0825,-1.91625 -2.25,-4.8325c-1.16625,-2.9175 -2.5,-7.4175 -4,-12.33375c-1.5,-4.91625 -3.16625,-10.25 -4,-15.66625c-0.8325,-5.4175 -0.8325,-10.9175 -0.75,-14.1675c0.0838,-3.25 0.25,-4.25 1.9175,-5.16625c1.66625,-0.91625 4.8325,-1.75 8,-2.83375c3.16625,-1.0825 6.3325,-2.41625 9.5,-3.75c-6.6675,-0.16625 -13.33375,-0.3325 -18.9175,0.1675c-5.5825,0.5 -10.0825,1.66625 -13.16625,2.91625c-3.08375,1.25 -4.75,2.58375 -6,4.41625c-1.25,1.83375 -2.08375,4.1675 -2.16625,7.08375c-0.0838,2.91625 0.5825,6.41625 1.91625,10.83375c1.33375,4.41625 3.33375,9.75 5.91625,15.16625c1.88,3.94125 4.0675,7.925 6.15,11.355z" id="path123767" stroke-miterlimit="10" stroke-linejoin="round" stroke-width="0.050001" stroke="#000000" fill-rule="nonzero" fill="#ffffff"/>
   <path d="m458.18039,209.05562c-0.25,-0.91625 -1.41625,-2.25 -4.5,-4c-3.0825,-1.75 -8.0825,-3.91625 -13.91625,-6.41625c-5.83375,-2.5 -12.5,-5.33375 -17.66625,-7.4175c-5.1675,-2.0825 -8.83375,-3.41625 -12.25,-4.5c-3.4175,-1.0825 -6.58375,-1.91625 -6.75,-0.75c-0.1675,1.1675 2.66625,4.33375 6.5825,7.1675c3.9175,2.8325 8.9175,5.3325 14.4175,7.66625c5.5,2.33375 11.5,4.5 16,6.16625c4.5,1.6675 7.5,2.83375 10.0825,3.4175c2.58375,0.5825 4.75,0.5825 6.1675,0.3325c1.41625,-0.25 2.0825,-0.75 1.8325,-1.66625z" id="path123769" stroke-miterlimit="10" stroke-linejoin="round" stroke-width="0.050001" stroke="#000000" fill-rule="nonzero" fill="#d5d8d8"/>
   <path d="m400.36039,182.93187c0.79125,1.29375 1.57125,2.51125 2.32,3.62375c2.75,4.08375 5.08375,6.75 8.83375,9.16625c3.75,2.4175 8.91625,4.58375 14.58375,6.83375c5.66625,2.25 11.8325,4.58375 16.41625,6.08375c4.58375,1.5 7.58375,2.16625 10.25,2.3325c2.66625,0.1675 5,-0.16625 6.16625,-0.75c1.1675,-0.5825 1.1675,-1.41625 0.75,-2.75c-0.41625,-1.3325 -1.25,-3.16625 -2.66625,-5.91625c-1.41625,-2.75 -3.41625,-6.41625 -5.41625,-10.5c-2,-4.08375 -4,-8.58375 -5.83375,-12.91625c-1.83375,-4.33375 -3.5,-8.5 -5.16625,-12.6675" id="path123771" stroke-miterlimit="10" stroke-linejoin="round" stroke-width="0.050001" stroke="#000000" fill="#ffffff"/>
   <path d="m468.18789,114.84812c-2.86375,2.125 -5.72625,4.25 -8.565,7.3425c-2.8375,3.09375 -5.65,7.15625 -7.47375,10.69875c-1.8225,3.54125 -2.65625,6.5625 -3.0725,9.27c-0.41625,2.70875 -0.41625,5.105 -0.0525,7.96875c0.365,2.865 1.09375,6.19875 2.1875,10.26125c1.09375,4.0625 2.5525,8.85375 5.15625,15.2075c2.605,6.355 6.355,14.27125 10.4175,21.71875c4.0625,7.44875 8.4375,14.4275 12.76,20.9375c4.3225,6.51125 8.59375,12.5525 12.70875,17.8125c4.11375,5.26125 8.0725,9.74 12.23875,14.21875c4.1675,4.48 8.5425,8.95875 12.70875,12.605c4.16625,3.645 8.125,6.4575 12.5,8.9575c4.375,2.5 9.16625,4.6875 14.89625,6.51125c5.72875,1.8225 12.395,3.28125 19.01,4.27c6.615,0.99 13.1775,1.51125 19.9475,1.77125c6.77125,0.26 13.75,0.26 25,0.3125c11.25,0.0525 26.77125,0.15625 45.6775,0.20875c18.90625,0.0512 41.1975,0.0512 63.59375,0.2075c22.39625,0.15625 44.89625,0.46875 60.02625,0.75625c15.13,0.28625 22.89,0.54625 30.65125,0.80625c1.30125,-7.86375 2.60375,-15.72875 4.08875,-24.7125c1.48375,-8.985 3.15,-19.08875 4.66125,-28.9325c1.51,-9.84375 2.86375,-19.4275 3.645,-27.865c0.78125,-8.4375 0.99,-15.72875 0.9375,-22.03125c-0.0512,-6.3025 -0.36375,-11.615 -0.98875,-16.25c-0.625,-4.635 -1.5625,-8.59375 -2.96875,-12.29125c-1.40625,-3.69875 -3.28125,-7.13625 -5.57375,-10.3125c-2.29125,-3.1775 -5,-6.09375 -8.80125,-9.01125c-3.8025,-2.91625 -8.69875,-5.8325 -13.02125,-8.17625c-4.3225,-2.34375 -8.0725,-4.115 -11.25625,-5.0425c-3.1825,-0.92625 -5.7975,-1.01 -8.41375,-1.0925" id="path123787" fill-rule="nonzero" fill="url(#linearGradient123773)"/>
   <path d="m468.18789,114.84812c-2.86375,2.125 -5.72625,4.25 -8.565,7.3425c-2.8375,3.09375 -5.65,7.15625 -7.47375,10.69875c-1.8225,3.54125 -2.65625,6.5625 -3.0725,9.27c-0.41625,2.70875 -0.41625,5.105 -0.0525,7.96875c0.365,2.865 1.09375,6.19875 2.1875,10.26125c1.09375,4.0625 2.5525,8.85375 5.15625,15.2075c2.605,6.355 6.355,14.27125 10.4175,21.71875c4.0625,7.44875 8.4375,14.4275 12.76,20.9375c4.3225,6.51125 8.59375,12.5525 12.70875,17.8125c4.11375,5.26125 8.0725,9.74 12.23875,14.21875c4.1675,4.48 8.5425,8.95875 12.70875,12.605c4.16625,3.645 8.125,6.4575 12.5,8.9575c4.375,2.5 9.16625,4.6875 14.89625,6.51125l18.01,4.27c6.615,0.99 14.1775,1.51125 20.9475,1.77125c6.77125,0.26 13.75,0.26 25,0.3125c11.25,0.0525 26.77125,0.15625 45.6775,0.20875c18.90625,0.0512 41.1975,0.0512 63.59375,0.2075c22.39625,0.15625 44.89625,0.46875 60.02625,0.75625c15.13,0.28625 22.89,0.54625 30.65125,0.80625c1.30125,-7.86375 2.60375,-15.72875 4.08875,-24.7125c1.48375,-8.985 3.15,-19.08875 4.66125,-28.9325c1.51,-9.84375 2.86375,-19.4275 3.645,-27.865c0.78125,-8.4375 0.99,-15.72875 0.9375,-22.03125c-0.0512,-6.3025 -0.36375,-11.615 -0.98875,-16.25c-0.625,-4.635 -1.5625,-8.59375 -2.96875,-12.29125c-1.40625,-3.69875 -3.28125,-7.13625 -5.57375,-10.3125c-2.29125,-3.1775 -5,-6.09375 -8.80125,-9.01125c-3.8025,-2.91625 -8.69875,-5.8325 -13.02125,-8.17625c-4.3225,-2.34375 -8.0725,-4.115 -11.25625,-5.0425c-3.1825,-0.92625 -5.7975,-1.01 -8.41375,-1.0925" id="path123789" stroke-miterlimit="10" stroke-linejoin="round" stroke-width="0.162499" stroke="#000000" fill="#ffffff"/>
   <path d="m698.18039,78.38937c-1.91625,1.25 -4.25,3.91625 -5.8325,7.16625c-1.58375,3.25 -2.4175,7.08375 -2.4175,11.08375c0,4 0.83375,8.16625 2.1675,10.91625c1.3325,2.75 3.16625,4.08375 5.41625,5.16625c2.25,1.08375 4.91625,1.9175 8.83375,2.1675c3.91625,0.25 9.0825,-0.0837 13.25,-0.75c4.16625,-0.6675 7.3325,-1.6675 9.66625,-3.08375c2.33375,-1.41625 3.83375,-3.25 4.91625,-5.16625c1.08375,-1.9175 1.75,-3.9175 2.08375,-5.5c0.33375,-1.58375 0.33375,-2.75 -0.25,-4.33375c-0.58375,-1.58375 -1.75,-3.58375 -4.16625,-5.83375c-2.4175,-2.25 -6.08375,-4.75 -10.08375,-6.91625c-4,-2.16625 -8.33375,-4 -11.5,-4.91625c-3.16625,-0.9175 -5.16625,-0.9175 -6.91625,-1c-1.75,-0.0837 -3.25,-0.25 -5.1675,1" id="path123791" fill-rule="nonzero" fill="#000000"/>
   <path d="m1149.28542,196.78562c-0.865,-0.43875 -3.6425,-0.9175 -4.6875,-1.5625c-8.3338,-5.13875 -16.0763,-11.25 -24.0625,-16.875c-7.9863,-5.625 -14.2363,-10.9025 -21.25,-16.875c-3.2688,-2.7825 -7.3113,-5.92875 -10.625,-9.0625c-3.7975,-3.59125 -6.8563,-7.18875 -10.4175,-10.56375c4.8612,1.0425 9.7225,2.08375 13.125,2.74375c3.4037,0.66 5.3475,0.9375 7.9175,2.7425c2.5687,1.80625 5.7637,5.13875 10.1387,9.65375c4.375,4.51375 9.93,10.2075 15.7638,15.97125c5.8337,5.76375 11.945,11.5975 16.0075,15.58c4.0625,3.98375 6.0762,6.115 8.09,8.2475z" id="path123793" stroke-miterlimit="10" stroke-linejoin="round" stroke-width="0.062504" stroke="#000000" fill-rule="nonzero" fill="#949791"/>
   <path d="m1141.47292,193.03562c-3.2638,1.75625 -6.5275,3.51375 -9.6188,4.73875c-3.09,1.22625 -6.0062,1.92 -12.0487,2.40625c-6.0413,0.48625 -15.2075,0.76375 -24.6525,0.695c-9.4438,-0.07 -19.1663,-0.48625 -28.055,-0.76375c-8.8888,-0.27875 -16.945,-0.4175 -25,-0.55625" id="path123795" stroke-miterlimit="10" stroke-linejoin="round" stroke-width="0.062504" stroke="#000000" fill="none"/>
   <path d="m1222.72292,256.22937c-3.125,-1.2575 -9.375,-1.67375 -12.6388,-1.465c-3.2637,0.2075 -3.5425,1.04125 -3.6812,8.9575c-0.1388,7.9175 -0.1388,22.9175 0.07,30.4175c0.2075,7.5 0.625,7.5 2.9162,8.3325c2.2913,0.83375 6.4588,2.5 9.0275,3.375c2.57,0.87625 3.5425,0.95875 4.2013,-1.915c0.66,-2.875 1.0075,-8.70875 1.4937,-16.24375c0.4863,-7.535 1.1113,-16.77 1.4238,-22.4375c0.3125,-5.66625 0.3125,-7.76375 -2.8125,-9.02125" id="path123797" fill-rule="nonzero" fill="#888282"/>
   <path d="m1218.27792,246.77812c-1.18,0.41625 -4.0975,0.13875 -7.3613,-0.48625c-3.2637,-0.625 -6.875,-1.5975 -11.875,-2.1525c-5,-0.55625 -11.3887,-0.695 -15.4862,-1.0425c-4.0963,-0.34625 -5.9025,-0.9025 -8.055,-2.01375c-2.1525,-1.11125 -4.6525,-2.7775 -6.805,-5c-2.1538,-2.22125 -3.9588,-5 -4.9313,-7.0825c-0.9725,-2.08375 -1.1112,-3.4725 -0.625,-4.375c0.4863,-0.90375 1.5975,-1.32 7.1525,-1.38875c5.5563,-0.07 15.5563,0.2075 22.5,0.625c6.945,0.41625 10.8338,0.97125 13.5425,1.59625c2.7075,0.625 4.2363,1.32 5.555,2.2925c1.32,0.97125 2.4313,2.22125 3.3338,4.375c0.9025,2.1525 1.5975,5.2075 2.0825,7.36125c0.4862,2.1525 0.765,3.4025 1.1812,4.5825c0.4163,1.18125 0.9725,2.2925 -0.2087,2.70875z" id="path123799" stroke-miterlimit="10" stroke-linejoin="round" stroke-width="1.874987" stroke="#000000" fill-rule="nonzero" fill="#888282"/>
   <path d="m1171.82042,227.61187c5,0 14.7212,0.555 19.93,0.97125c5.2087,0.4175 5.9025,0.695 6.3887,1.0425c0.4863,0.34625 0.7638,0.76375 1.1813,2.84625c0.4162,2.08375 0.9712,5.83375 0.8325,7.70875c-0.1388,1.875 -0.9725,1.875 -4.305,1.73625c-3.3338,-0.13875 -9.1675,-0.41625 -13.195,-0.695c-4.0275,-0.2775 -6.25,-0.555 -7.9863,-1.4575c-1.7362,-0.9025 -2.9862,-2.43125 -4.2362,-4.0275c-1.25,-1.5975 -2.5,-3.265 -3.1938,-4.445c-0.695,-1.18 -0.8337,-1.875 -0.7637,-2.5c0.069,-0.625 0.3475,-1.18 5.3475,-1.18z" id="path123801" stroke-miterlimit="10" stroke-linejoin="round" stroke-width="0.062504" stroke="#a6a6a6" fill-rule="nonzero" fill="#ffffff"/>
   <path d="m1064.59792,230.97187c-3.3338,-6.8325 -6.6675,-13.66625 -10.9175,-19.91625c-4.25,-6.25 -9.4163,-11.91625 -15.25,-16.91625c-5.8325,-5 -12.3325,-9.33375 -20.5,-13.25c-8.1663,-3.9175 -18.00003,-7.4175 -28.66628,-9.5c-10.66625,-2.08375 -22.16625,-2.75 -33,-2.1675c-10.83375,0.58375 -21,2.4175 -30.16625,5.4175c-9.1675,3 -17.33375,7.16625 -25,11.91625c-7.6675,4.75 -14.83375,10.08375 -21.1675,16c-6.3325,5.91625 -11.8325,12.41625 -16.66625,20.25c-4.83375,7.83375 -9,17 -12,26.58375c-3,9.5825 -4.83375,19.5825 -6.08375,25.75c-1.25,6.16625 -1.91625,8.5 -2.5825,10.8325" id="path123803" stroke-miterlimit="10" stroke-linejoin="round" stroke-width="0.050001" stroke="#000000" fill="none"/>
   <path d="m1234.18042,354.03437c-7.8125,-1.5625 -27.6038,-3.125 -59.895,-4.42625c-32.2925,-1.3025 -77.0838,-2.34375 -108.3338,-2.34375c-31.25,0 -48.9587,1.04125 -79.94748,1.04125c-30.99,0 -75.26125,-1.04125 -121.875,-1.5625c-46.615,-0.52125 -95.57375,-0.52125 -145.57375,-0.52125c-50,0 -101.04125,0 -164.5825,0c-63.5425,0 -139.58375,0 -200.78125,0c-61.19876,0 -107.55251,0 -151.82376,0c-44.27,0 -86.45749,0 -113.80125,0.26125c-27.34375,0.26 -39.84375,0.78125 -48.1775,1.04125c-8.33375,0.26 -12.5,0.26 -15.10375,0.78125c-2.605,0.52125 -3.64625,1.5625 -4.1675,2.34375c-0.52,0.78125 -0.52,1.3025 3.125,2.08375c3.64625,0.78125 10.9375,1.8225 36.19875,2.34375c25.26,0.52 68.48876,0.52 116.40625,0.52c47.91625,0 100.52,0 168.48876,0c67.96875,0 151.3025,0 243.23,0.26125c91.92625,0.26 192.4475,0.78125 272.135,1.30125c79.6875,0.52125 138.54125,1.0425 187.23998,1.5625c48.6975,0.52125 87.2388,1.0425 113.5413,1.3025c26.3025,0.26 40.365,0.26 50.5212,0c10.1563,-0.26 16.4063,-0.78125 21.6138,-1.8225c5.2087,-1.0425 9.375,-2.605 1.5625,-4.1675" id="path123805" fill-rule="nonzero" fill="#32353e"/>
   <path d="m965.86789,214.82187c27.925,0 50.56123,22.6375 50.56123,50.56125c0,27.92375 -22.63623,50.56125 -50.56123,50.56125c-27.92375,0 -50.56,-22.6375 -50.56,-50.56125c0,-27.92375 22.63625,-50.56125 50.56,-50.56125" id="path123817" fill-rule="nonzero" fill="url(#linearGradient123807)"/>
   <path d="m965.86789,214.82187c27.925,0 50.56123,22.6375 50.56123,50.56125c0,27.92375 -22.63623,50.56125 -50.56123,50.56125c-27.92375,0 -50.56,-22.6375 -50.56,-50.56125c0,-27.92375 22.63625,-50.56125 50.56,-50.56125z" id="path123819" stroke-miterlimit="10" stroke-linejoin="round" stroke-width="0.111737" stroke="#35343c" fill="none"/>
   <path d="m938.10039,302.23687l-0.3725,-81.5675l-7.07625,0l-16.76125,18.25125l0.3725,45.81125l13.40875,17.1325l10.42875,0.3725" id="path123821" fill-rule="nonzero" fill="#000000"/>
   <path d="m965.86789,189.12312c42.11753,0 76.26003,34.1425 76.26003,76.26c0,42.1175 -34.1425,76.26 -76.26003,76.26c-42.11625,0 -76.26,-34.1425 -76.26,-76.26c0,-42.1175 34.14375,-76.26 76.26,-76.26zm-62.97625,71.815l-0.43375,0.255l48.8,-7.24375l-9.0025,-47.2025c-21.82625,8.84375 -37.65125,29.57375 -39.36375,54.19125zm47.96875,-57.06625l-0.48,0.29375l0.5625,-0.13875l22.69125,42.46875l40.71128,-21.56375c-11.4413,-13.7875 -28.92003,-22.68 -48.47753,-22.68c-5.14125,0 -10.14,0.615 -14.925,1.775l-0.0825,-0.155zm69.19123,93.94375l-0.01,-0.005c5.685,-9.4775 8.9537,-20.57125 8.9537,-32.4275c0,-12.21625 -3.47,-23.6225 -9.3412,-33.26l-32.64378,32.99875l33.03128,32.68875l-0.27,0.44625l0.2762,-0.44125l0.0038,0zm-68.14998,29.58125l0.4625,-0.33c4.35,0.9475 8.86875,1.4475 13.50375,1.4475c19.60875,0 37.13003,-8.94 48.69623,-22.87875l-40.95873,-21.5875l-21.70375,43.34875zm-9.12,-3.36625l8.68625,-47.315l-48.61625,-6.8325c1.75375,24.7675 17.855,45.6625 40.075,54.33375l-0.145,-0.18625" id="path123837" fill-rule="nonzero" fill="url(#radialGradient123823)"/>
   <path d="m965.86789,189.12312c42.11753,0 76.26003,34.1425 76.26003,76.26c0,42.1175 -34.1425,76.26 -76.26003,76.26c-42.11625,0 -76.26,-34.1425 -76.26,-76.26c0,-42.1175 34.14375,-76.26 76.26,-76.26zm-62.97625,71.815l-0.43375,0.255l48.8,-7.24375l-9.0025,-47.2025c-21.82625,8.84375 -37.65125,29.57375 -39.36375,54.19125zm47.96875,-57.06625l-0.48,0.29375l0.5625,-0.13875l22.69125,42.46875l40.71128,-21.56375c-11.4413,-13.7875 -28.92003,-22.68 -48.47753,-22.68c-5.14125,0 -10.14,0.615 -14.925,1.775l-0.0825,-0.155zm69.19123,93.94375l-0.01,-0.005c5.685,-9.4775 8.9537,-20.57125 8.9537,-32.4275c0,-12.21625 -3.47,-23.6225 -9.3412,-33.26l-32.64378,32.99875l33.03128,32.68875l-0.27,0.44625l0.2762,-0.44125l0.0038,0zm-68.14998,29.58125l0.4625,-0.33c4.35,0.9475 8.86875,1.4475 13.50375,1.4475c19.60875,0 37.13003,-8.94 48.69623,-22.87875l-40.95873,-21.5875l-21.70375,43.34875zm-9.12,-3.36625l8.68625,-47.315l-48.61625,-6.8325c1.75375,24.7675 17.855,45.6625 40.075,54.33375l-0.145,-0.18625z" id="path123839" stroke-miterlimit="10" stroke-linejoin="round" stroke-width="0.062504" stroke="#15180f" fill="none"/>
   <path d="m986.03039,253.29312c0.68875,2.33625 -0.6475,4.79 -2.985,5.4775c-2.33625,0.68875 -4.79,-0.6475 -5.4775,-2.985c-0.68875,-2.33625 0.6475,-4.79 2.985,-5.4775c2.33625,-0.68875 4.78875,0.6475 5.4775,2.985" id="path123847" fill-rule="nonzero" fill="url(#radialGradient123841)"/>
   <path d="m985.07414,272.97562c0.68875,2.3375 -0.6475,4.79 -2.985,5.47875c-2.33625,0.6875 -4.79,-0.64875 -5.4775,-2.985c-0.68875,-2.3375 0.6475,-4.79 2.985,-5.47875c2.33625,-0.68875 4.78875,0.6475 5.4775,2.985" id="path123855" fill-rule="nonzero" fill="url(#radialGradient123849)"/>
   <path d="m966.42164,279.90812c0.68875,2.33625 -0.6475,4.79 -2.985,5.4775c-2.33625,0.68875 -4.79,-0.6475 -5.4775,-2.985c-0.68875,-2.33625 0.6475,-4.78875 2.985,-5.4775c2.33625,-0.68875 4.78875,0.6475 5.4775,2.985" id="path123863" fill-rule="nonzero" fill="url(#radialGradient123857)"/>
   <path d="m953.93539,262.89187c0.68875,2.33625 -0.6475,4.78875 -2.985,5.4775c-2.33625,0.68875 -4.78875,-0.6475 -5.4775,-2.985c-0.68875,-2.33625 0.6475,-4.79 2.985,-5.4775c2.33625,-0.68875 4.79,0.6475 5.4775,2.985" id="path123871" fill-rule="nonzero" fill="url(#radialGradient123865)"/>
   <path d="m966.37664,246.57937c0.6875,2.3375 -0.64875,4.79 -2.985,5.47875c-2.3375,0.68875 -4.79,-0.6475 -5.47875,-2.985c-0.68875,-2.3375 0.64875,-4.79 2.985,-5.47875c2.3375,-0.6875 4.79,0.64875 5.47875,2.985" id="path123879" fill-rule="nonzero" fill="url(#radialGradient123873)"/>
   <path d="m974.38039,262.88687c1.285,4.36125 -1.20875,8.9375 -5.57,10.2225c-4.36,1.28375 -8.9375,-1.21 -10.22125,-5.57c-1.285,-4.36125 1.20875,-8.9375 5.56875,-10.2225c4.36125,-1.28375 8.9375,1.21 10.2225,5.57" id="path123887" fill-rule="nonzero" fill="url(#radialGradient123881)"/>
   <path d="m965.86789,172.68687c-51.19375,0 -92.69625,41.50125 -92.69625,92.69625c0,51.195 41.5025,92.69625 92.69625,92.69625c51.19503,0 92.69753,-41.50125 92.69753,-92.69625c0,-51.195 -41.5025,-92.69625 -92.69753,-92.69625zm0,16.435c42.11873,0 76.26123,34.14375 76.26123,76.26125c0,42.1175 -34.1425,76.26125 -76.26123,76.26125c-42.1175,0 -76.26,-34.14375 -76.26,-76.26125c0,-42.1175 34.1425,-76.26125 76.26,-76.26125z" id="path123889" stroke-miterlimit="10" stroke-linejoin="round" stroke-width="0.124999" stroke="#15180f" fill-rule="nonzero" fill="#2f2f2f"/>
   <path d="m278.51413,313.61687c-27.92375,0 -50.56,-22.6375 -50.56,-50.56125c0,-27.92375 22.63625,-50.56125 50.56,-50.56125c27.92375,0 50.56125,22.6375 50.56125,50.56125c0,27.92375 -22.6375,50.56125 -50.56125,50.56125" id="path123901" fill-rule="nonzero" fill="url(#linearGradient123891)"/>
   <path d="m278.51413,313.61687c-27.92375,0 -50.56,-22.6375 -50.56,-50.56125c0,-27.92375 22.63625,-50.56125 50.56,-50.56125c27.92375,0 50.56125,22.6375 50.56125,50.56125c0,27.92375 -22.6375,50.56125 -50.56125,50.56125z" id="path123903" stroke-miterlimit="10" stroke-linejoin="round" stroke-width="0.111737" stroke="#35343c" fill="none"/>
   <path d="m306.28288,226.20187l0.3725,81.5675l7.07625,0l16.76,-18.25l-0.3725,-45.8125l-13.4075,-17.1325l-10.42875,-0.3725" id="path123905" fill-rule="nonzero" fill="#000000"/>
   <path d="m278.51413,339.31562c-42.1175,0 -76.26,-34.1425 -76.26,-76.26c0,-42.1175 34.1425,-76.26 76.26,-76.26c42.1175,0 76.26001,34.1425 76.26001,76.26c0,42.1175 -34.14251,76.26 -76.26001,76.26zm62.9775,-71.815l0.4325,-0.255l-48.8,7.245l9.0025,47.20125c21.82625,-8.84375 37.6525,-29.57375 39.365,-54.19125zm-47.97,57.06625l0.48125,-0.29375l-0.56375,0.13875l-22.69,-42.4675l-40.71125,21.5625c11.44,13.7875 28.92,22.68 48.47625,22.68c5.14125,0 10.14,-0.615 14.925,-1.775l0.0825,0.155zm-69.19,-93.94375l0.005,0.005c-5.685,9.4775 -8.95375,20.57125 -8.95375,32.4275c0,12.21625 3.47,23.6225 9.3425,33.26l32.64375,-32.99875l-33.0325,-32.68875l0.27,-0.44625l-0.275,0.44125zm68.15,-29.58125l-0.4625,0.33c-4.35125,-0.9475 -8.87,-1.4475 -13.505,-1.4475c-19.60875,0 -37.12875,8.94 -48.695,22.87875l40.95875,21.5875l21.70375,-43.34875zm9.12,3.36625l-8.68625,47.315l48.61625,6.83375c-1.755,-24.76875 -17.85625,-45.66375 -40.075,-54.335l0.145,0.18625" id="path123921" fill-rule="nonzero" fill="url(#radialGradient123907)"/>
   <path d="m278.51413,339.31562c-42.1175,0 -76.26,-34.1425 -76.26,-76.26c0,-42.1175 34.1425,-76.26 76.26,-76.26c42.1175,0 76.26001,34.1425 76.26001,76.26c0,42.1175 -34.14251,76.26 -76.26001,76.26zm62.9775,-71.815l0.4325,-0.255l-48.8,7.245l9.0025,47.20125c21.82625,-8.84375 37.6525,-29.57375 39.365,-54.19125zm-47.97,57.06625l0.48125,-0.29375l-0.56375,0.13875l-22.69,-42.4675l-40.71125,21.5625c11.44,13.7875 28.92,22.68 48.47625,22.68c5.14125,0 10.14,-0.615 14.925,-1.775l0.0825,0.155zm-69.19,-93.94375l0.005,0.005c-5.685,9.4775 -8.95375,20.57125 -8.95375,32.4275c0,12.21625 3.47,23.6225 9.3425,33.26l32.64375,-32.99875l-33.0325,-32.68875l0.27,-0.44625l-0.275,0.44125zm68.15,-29.58125l-0.4625,0.33c-4.35125,-0.9475 -8.87,-1.4475 -13.505,-1.4475c-19.60875,0 -37.12875,8.94 -48.695,22.87875l40.95875,21.5875l21.70375,-43.34875zm9.12,3.36625l-8.68625,47.315l48.61625,6.83375c-1.755,-24.76875 -17.85625,-45.66375 -40.075,-54.335l0.145,0.18625z" id="path123923" stroke-miterlimit="10" stroke-linejoin="round" stroke-width="0.062504" stroke="#15180f" fill="none"/>
   <path d="m258.35163,275.14562c-0.6875,-2.33625 0.64875,-4.78875 2.985,-5.4775c2.3375,-0.68875 4.79,0.6475 5.47875,2.985c0.68875,2.33625 -0.6475,4.79 -2.985,5.4775c-2.3375,0.68875 -4.79,-0.6475 -5.47875,-2.985" id="path123931" fill-rule="nonzero" fill="url(#radialGradient123925)"/>
   <path d="m259.30788,255.46312c-0.68875,-2.3375 0.64875,-4.79 2.985,-5.47875c2.3375,-0.6875 4.79,0.64875 5.47875,2.985c0.68875,2.3375 -0.6475,4.79 -2.985,5.47875c-2.3375,0.68875 -4.79,-0.6475 -5.47875,-2.985" id="path123939" fill-rule="nonzero" fill="url(#radialGradient123933)"/>
   <path d="m277.96038,248.53062c-0.6875,-2.33625 0.64875,-4.78875 2.985,-5.4775c2.3375,-0.68875 4.79,0.6475 5.47875,2.985c0.68875,2.33625 -0.6475,4.78875 -2.985,5.4775c-2.3375,0.68875 -4.79,-0.6475 -5.47875,-2.985" id="path123947" fill-rule="nonzero" fill="url(#radialGradient123941)"/>
   <path d="m290.44663,265.54687c-0.68875,-2.33625 0.64875,-4.78875 2.985,-5.4775c2.3375,-0.68875 4.79,0.6475 5.47875,2.985c0.68875,2.3375 -0.64875,4.79 -2.985,5.4775c-2.3375,0.68875 -4.79,-0.6475 -5.47875,-2.985" id="path123955" fill-rule="nonzero" fill="url(#radialGradient123949)"/>
   <path d="m278.00663,281.85937c-0.68875,-2.3375 0.6475,-4.79 2.985,-5.47875c2.3375,-0.68875 4.79,0.64875 5.4775,2.985c0.68875,2.3375 -0.6475,4.79 -2.985,5.47875c-2.33625,0.68875 -4.78875,-0.64875 -5.4775,-2.985" id="path123963" fill-rule="nonzero" fill="url(#radialGradient123957)"/>
   <path d="m270.00288,265.55187c-1.285,-4.36125 1.20875,-8.9375 5.56875,-10.2225c4.36125,-1.28375 8.9375,1.21 10.2225,5.57c1.285,4.36125 -1.20875,8.9375 -5.57,10.2225c-4.36,1.28375 -8.9375,-1.20875 -10.22125,-5.57" id="path123971" fill-rule="nonzero" fill="url(#radialGradient123965)"/>
   <path d="m278.51413,355.75187c51.195,0 92.69626,-41.50125 92.69626,-92.69625c0,-51.195 -41.50126,-92.69625 -92.69626,-92.69625c-51.195,0 -92.69625,41.50125 -92.69625,92.69625c0,51.195 41.50125,92.69625 92.69625,92.69625zm0,-16.435c-42.1175,0 -76.26125,-34.14375 -76.26125,-76.26125c0,-42.1175 34.14375,-76.26125 76.26125,-76.26125c42.1175,0 76.26126,34.14375 76.26126,76.26125c0,42.1175 -34.14376,76.26125 -76.26126,76.26125z" id="path123973" stroke-miterlimit="10" stroke-linejoin="round" stroke-width="0.124999" stroke="#15180f" fill-rule="nonzero" fill="#2f2f2f"/>
   <path d="m432.59789,57.47187c-14,3.5 -28,7 -43.1675,11.25c-15.16625,4.25 -31.5,9.25 -42.91625,12.9175c-11.41626,3.66625 -17.91626,6 -21.00001,7.25c-3.08375,1.25 -2.75,1.41625 -2,2.0825c0.75,0.6675 1.91625,1.83375 3.75,2.58375c1.83375,0.75 4.33375,1.08375 5.75,1.58375c1.41625,0.5 1.75,1.16625 2.41625,2.0825c0.6675,0.9175 1.6675,2.08375 2.58375,2.9175c0.91625,0.8325 1.75,1.3325 2.16625,1.5825c0.4175,0.25 0.4175,0.25 14.00001,1c13.58375,0.75 40.75,2.25 58.83375,3.33375c18.08375,1.08375 27.08375,1.75 36.08375,2.41625l-16.5,-51" id="path123975" fill-rule="nonzero" fill="#000000"/>
   <path d="m312.86038,102.67062c-0.7975,0.365 -10.1725,-0.5725 -17.3125,-1.36375c-7.14,-0.7925 -12.045,-1.43875 -15.9975,-2.22c-3.9525,-0.78125 -6.9525,-1.6975 -9.2025,-2.53125c-2.25,-0.83375 -3.75,-1.58375 -4.5425,-2.83375c-0.79125,-1.25 -0.875,-3 -0.125,-4.79125c0.75,-1.79125 2.33375,-3.625 4.4175,-5.45875c2.0825,-1.8325 4.66625,-3.66625 8.2075,-5.5825c3.5425,-1.9175 8.0425,-3.9175 11.5,-5.5c3.45875,-1.58375 5.875,-2.75 6.7925,-3c0.91625,-0.25 0.3325,0.41625 -1.1675,1.75c-1.5,1.3325 -3.91625,3.3325 -5.91625,5.3325c-2,2 -3.58375,4 -4.625,5.875c-1.04125,1.875 -1.54125,3.625 -1.625,5.33375c-0.0838,1.70875 0.25,3.375 1.125,4.66625c0.875,1.2925 2.29125,2.20875 4.66625,3.25c2.375,1.0425 5.70875,2.20875 11.265,3.625c5.5575,1.4175 13.3375,3.08375 12.54,3.44875" id="path123977" fill-rule="nonzero" fill="#3e4147"/>
   <path d="m424.09789,30.09812l25,78.25" id="path123979" stroke-miterlimit="10" stroke-linejoin="round" stroke-width="0.249999" stroke="#000000" fill-rule="nonzero" fill="#3e4147"/>
   <path d="m446.34789,26.84812l29.5,86" id="path123981" stroke-miterlimit="10" stroke-linejoin="round" stroke-width="0.249999" stroke="#000000" fill-rule="nonzero" fill="#3e4147"/>
   <path d="m832.92039,117.77437c1.5275,-1.1575 3.05625,-2.315 4.20125,-3.5875c1.14625,-1.27375 1.91,-2.6625 2.2925,-3.935c0.38125,-1.27375 0.38125,-2.43125 0.38125,-3.58875" id="path123983" stroke-miterlimit="10" stroke-linejoin="round" stroke-width="2.464988" stroke="#000000" fill="none"/>
   <path d="m834.90289,315.25062c-21.805,-1.11125 -65.13875,-1.945 -110,-2.5c-44.86125,-0.55625 -91.25,-0.83375 -134.0275,-0.27875c-42.7775,0.55625 -81.945,1.945 -110.9725,2.36125c-29.0275,0.4175 -47.91625,-0.13875 -62.0825,-0.97125c-14.1675,-0.83375 -23.61125,-1.945 -28.61125,-1.52875c-5,0.4175 -5.55625,2.36125 -5.9725,4.58375c-0.41625,2.2225 -0.695,4.7225 -0.36125,6.965c0.33375,2.24375 1.2775,4.23 7.655,5.33c6.3775,1.10125 18.1875,1.315 47.16,0.3225c28.97125,-0.99375 75.10625,-3.19375 117.34,-4.43375c42.23375,-1.24 80.5675,-1.5175 115.15,-0.8225c34.58375,0.69375 65.4175,2.36125 91.6675,3.61125c26.25,1.25 47.91625,2.0825 62.465,2.715c14.54875,0.6325 21.97875,1.0625 26.11125,0.34125c4.13125,-0.7225 4.965,-2.5975 5.555,-4.7575c0.59125,-2.16 0.9375,-4.605 0.9725,-6.52125c0.035,-1.91625 -0.2425,-3.305 -22.04875,-4.41625z" id="path123985" stroke-miterlimit="10" stroke-linejoin="round" stroke-width="0.062504" stroke="#000000" fill-rule="nonzero" fill="#ffffff"/>
   <path d="m383.09789,328.59812c41.72375,-0.27 83.44875,-0.54 117.44875,-1.2825c34,-0.74375 60.275,-1.96 87.37125,-2.3875c27.09625,-0.4275 55.0125,-0.0663 82.09625,0.635c27.08375,0.70125 53.33375,1.74375 78.02125,2.88875c24.6875,1.14625 47.8125,2.39625 64.27,2.98c16.45875,0.5825 26.25,0.5 36.0425,0.41625" id="path123987" stroke-miterlimit="10" stroke-linejoin="round" stroke-width="2.499988" stroke="#000000" fill="none"/>
   <path d="m48.59788,264.97187c-8.1675,-0.66625 -16.33375,-1.3325 -22.83375,-1.91625c-6.5,-0.58375 -11.33375,-1.08375 -16.16625,-1.58375c0.5,1.1675 1,2.33375 2.16625,3.25c1.16625,0.9175 3,1.58375 6.41625,2.08375c3.4175,0.5 8.4175,0.83375 12.6675,1.08375c4.25,0.25 7.75,0.41625 9.75,0.5c2,0.0825 2.5,0.0825 3.5825,-0.5c1.08375,-0.58375 2.75,-1.75 4.4175,-2.9175z" id="path123989" stroke-miterlimit="10" stroke-linejoin="round" stroke-width="0.062504" stroke="#000000" fill-rule="nonzero" fill="#ffffff"/>
   <path d="m185.09788,204.59812c-27.38875,-0.1525 -54.77749,-0.30625 -78.19499,-0.24375c-23.41626,0.0625 -42.86126,0.34 -57.72251,0.47875c-14.86,0.13875 -25.13875,0.13875 -35.41625,0.13875" id="path123991" stroke-miterlimit="10" stroke-linejoin="round" stroke-width="0.062504" stroke="#000000" fill="none"/>
   <path d="m273.76413,118.30562c-20.555,1.38875 -41.11125,2.7775 -61.94375,4.305c-20.83375,1.52875 -41.945,3.195 -58.195,4.7225c-16.24999,1.5275 -27.63874,2.9175 -35.69499,3.75c-8.055,0.83375 -12.7775,1.11125 -15.97125,0.4175c-3.19501,-0.695 -4.86126,-2.36125 -6.38876,-3.75c-1.52875,-1.39 -2.9175,-2.5 -4.30625,-3.61125c9.44501,-1.6675 18.88876,-3.33375 31.11126,-4.445c12.2225,-1.11125 27.22249,-1.66625 42.91624,-2.2225c15.695,-0.555 32.08375,-1.11125 45.55625,-1.94375c13.4725,-0.83375 24.0275,-1.945 30.9725,-1.945c6.94375,0 10.2775,1.11125 15,2.08375c4.72125,0.9725 10.8325,1.805 16.94375,2.63875" id="path123993" fill-rule="nonzero" fill="#ffffff"/>
   <path d="m1215.09792,257.47187c-0.1675,4.33375 -0.3338,8.6675 -1.1675,14.33375c-0.8325,5.66625 -2.3325,12.66625 -3.5,17.5c-1.1663,4.83375 -2,7.5 -2.8325,10.16625c0.1662,-5.16625 0.3325,-10.3325 0.1662,-16c-0.1662,-5.66625 -0.6662,-11.8325 -0.8337,-16.66625c-0.1663,-4.83375 0,-8.33375 0.4175,-10.25c0.4162,-1.91625 1.0825,-2.25 1.75,-2.08375c0.6662,0.1675 1.3325,0.83375 2.3325,1.4175c1,0.5825 2.3337,1.0825 3.6675,1.5825" id="path123995" fill-rule="nonzero" fill="#2e2d35"/>
   <path d="m1080.84792,142.78437c4.375,4.58375 8.75,9.1675 14.7387,14.375c5.99,5.20875 13.5938,11.0425 19.6875,15.57375c6.0938,4.53125 10.6775,7.76 14.8963,10.67625c4.2187,2.9175 8.0725,5.52125 11.9275,8.125" id="path123997" stroke-miterlimit="10" stroke-linejoin="round" stroke-width="2.499988" stroke="#000000" fill="none"/>
   <path d="m1207.72292,247.47187c-13.125,0 -26.25,0 -40.5213,-0.2075c-14.2712,-0.20875 -29.6875,-0.625 -38.6462,-1.0425c-8.9575,-0.41625 -11.4575,-0.8325 -13.9575,-1.25" id="path123999" stroke-miterlimit="10" stroke-linejoin="round" stroke-width="0.062504" stroke="#323535" fill="none"/>
   <path d="m1227.12542,315.22312c-3.3338,-0.3125 -6.6663,-0.625 -10.7813,-1.25c-4.115,-0.625 -9.01,-1.5625 -21.51,-3.1775c-12.5,-1.61375 -32.605,-3.90625 -53.5625,-6.23875c-20.9587,-2.33375 -42.7712,-4.70875 -64.5837,-7.08375c-0.5838,5.125 -1.1663,10.25 -2.135,15.4475c-0.9688,5.19875 -2.3238,10.46875 -3.4175,14.40625c-1.0938,3.9375 -1.9263,6.5425 -2.76,9.14625c4.2712,-0.3125 8.5412,-0.625 14.115,-1.35375c5.5725,-0.73 12.4475,-1.875 19.635,-2.8125c7.1875,-0.9375 14.6875,-1.6675 21.5625,-2.1875c6.875,-0.52125 13.125,-0.83375 20.5725,-1.45875c7.4487,-0.625 16.0937,-1.5625 23.4375,-2.1875c7.3437,-0.625 13.3862,-0.9375 18.6462,-1.3025c5.26,-0.36375 9.74,-0.78125 14.1925,-0.98875c4.4538,-0.20875 8.88,-0.20875 12.5263,-0.78125c3.6462,-0.57375 6.51,-1.71875 8.5162,-2.865c2.005,-1.14625 3.15,-2.29125 3.9313,-3.1775c0.7812,-0.885 1.1987,-1.51 1.615,-2.135z" id="path124805" fill-rule="nonzero" fill="#ffffff"/>
   <path d="m1223.41662,315.04187c-2.8462,0.20875 -9.7912,-0.3475 -21.4575,-1.66625c-11.6675,-1.32 -28.0562,-3.40375 -43.75,-5.20875c-15.695,-1.80625 -30.695,-3.33375 -42.4312,-4.305c-11.7363,-0.9725 -20.2075,-1.39 -24.7225,-2.015c-4.5138,-0.625 -5.0688,-1.4575 -4.86,-2.36c0.2075,-0.90375 1.18,-1.87625 3.3325,-2.50125c2.1525,-0.625 5.4862,-0.9025 15.625,-0.69375c10.1387,0.20875 27.0837,0.9025 42.3612,1.805c15.2775,0.90375 28.8888,2.01375 37.2225,2.98625c8.3338,0.9725 11.3888,1.80625 15.2775,2.98625c3.8888,1.18125 8.6113,2.70875 12.7088,4.23625c4.0975,1.5275 7.5687,3.055 9.93,4.305c2.3612,1.25 3.6112,2.2225 0.7637,2.43125z" id="path124807" stroke-miterlimit="10" stroke-linejoin="round" stroke-width="0.062504" stroke="#6e6e6e" fill-rule="nonzero" fill="#ffffff"/>
   <path d="m11.29913,290.56312c-0.3125,1.145 -0.17375,3.50625 -0.035,5.2075c0.13875,1.70125 0.2775,2.74375 0.86875,3.4725c0.59,0.72875 1.63125,1.14625 5.7975,2.08375c4.1675,0.9375 11.45875,2.395 23.89,4.54875c12.43,2.1525 30,5 40.97125,6.70125c10.9725,1.70125 15.3475,2.25625 21.66751,2.91625c6.31875,0.66 14.5825,1.42375 20.2075,1.80625c5.625,0.38125 8.61125,0.38125 10.13875,0.3125c1.52875,-0.07 1.5975,-0.20875 1.84125,-0.55625c0.2425,-0.3475 0.65875,-0.9025 1.35375,-2.29125c0.695,-1.38875 1.66625,-3.61125 2.04875,-6.0075c0.38125,-2.395 0.17375,-4.965 -0.66,-7.1175c-0.83375,-2.1525 -2.29125,-3.88875 -3.57625,-5.13875c-1.285,-1.25 -2.39625,-2.01375 -3.4025,-2.46625c-1.0075,-0.45125 -1.91,-0.59 -18.61125,-1.5275c-16.70126,-0.9375 -49.20126,-2.67375 -65.97251,-3.4725c-16.77125,-0.7975 -17.8125,-0.65875 -18.64625,-0.41625c-0.8325,0.2425 -1.4575,0.59 -2.1175,0.83375c-0.66,0.2425 -1.35375,0.38125 -2.7775,0.52c-1.42375,0.14 -3.57625,0.27875 -5.55625,0.20875c-1.97875,-0.07 -3.78375,-0.3475 -5.06875,-0.52125c-1.285,-0.1725 -2.04875,-0.2425 -2.36125,0.90375" id="path124823" fill-rule="nonzero" fill="url(#radialGradient124809)"/>
   <path stroke="#000000" d="m16.632464,290.56312c-0.3125,1.145 -0.17375,3.50625 -0.035,5.2075c0.13875,1.70125 0.2775,2.74375 0.86875,3.4725c0.59,0.72875 1.63125,1.14625 5.7975,2.08375c4.16625,0.9375 11.45875,2.395 23.89,4.54875c12.43,2.1525 30,5 40.97125,6.70125c10.9725,1.70125 15.3475,2.25625 21.66751,2.91625c6.31875,0.66 14.5825,1.42375 20.2075,1.80625c5.625,0.38125 8.61125,0.38125 10.13875,0.3125c1.52875,-0.07 1.5975,-0.20875 1.84125,-0.55625c0.2425,-0.3475 0.65875,-0.9025 1.35375,-2.29125c0.695,-1.38875 1.66625,-3.61125 2.04875,-6.0075c0.38125,-2.395 0.17375,-4.965 -0.66,-7.1175c-0.83375,-2.1525 -2.29125,-3.88875 -3.57625,-5.13875c-1.285,-1.25 -2.39625,-2.01375 -3.4025,-2.46625c-1.0075,-0.45125 -1.91,-0.59 -18.61125,-1.5275c-16.70126,-0.9375 -49.20126,-2.67375 -65.97251,-3.4725c-16.77125,-0.7975 -17.8125,-0.65875 -18.64625,-0.41625c-0.8325,0.2425 -1.4575,0.59 -2.1175,0.83375c-0.66,0.2425 -1.35375,0.38125 -2.7775,0.52c-1.42375,0.14 -3.57625,0.27875 -5.55625,0.20875c-1.97875,-0.07 -3.78375,-0.3475 -5.06875,-0.52125c-1.285,-0.17375 -2.04875,-0.2425 -2.36125,0.90375z" id="path124825" stroke-miterlimit="10" stroke-linejoin="round" stroke-width="0.062504" fill="#ffffff"/>
   <path d="m509.91039,151.74312c-2.39625,-0.72875 -6.6675,-1.875 -12.1875,-2.76c-5.52125,-0.88625 -12.2925,-1.51125 -17.70875,-1.875c-5.41625,-0.365 -9.47875,-0.46875 -12.5,0.0513c-3.02125,0.52125 -5,1.6675 -6.14625,3.07375c-1.145,1.40625 -1.4575,3.0725 -1.4575,4.635c0,1.5625 0.3125,3.02125 0.885,4.4275c0.5725,1.40625 1.40625,2.76 2.4475,4.01c1.0425,1.25 2.2925,2.39625 3.95875,3.22875c1.66625,0.83375 3.75,1.355 7.135,1.77125c3.38625,0.41625 8.07375,0.72875 13.69875,0.78125c5.625,0.0525 12.1875,-0.15625 16.5625,-0.5725c4.375,-0.4175 6.5625,-1.0425 8.385,-1.77125c1.8225,-0.72875 3.28125,-1.5625 4.27125,-2.5525c0.98875,-0.98875 1.51,-2.135 1.51,-3.3325c0,-1.19875 -0.52125,-2.44875 -1.3025,-3.5425c-0.78125,-1.09375 -1.8225,-2.03125 -2.55125,-2.7075c-0.73,-0.6775 -1.14625,-1.09375 -1.615,-1.45875c-0.46875,-0.365 -0.99,-0.6775 -3.385,-1.40625l0,-0.00005z" id="path125119" stroke-miterlimit="10" stroke-linejoin="round" stroke-width="0.050001" stroke="#4d5050" fill-rule="nonzero" fill="#ffffff"/>
   <path d="m511.78539,158.72187c-5.625,-0.625 -11.25,-1.25 -16.51125,-1.51c-5.26,-0.26 -10.15625,-0.15625 -14.16625,0.0525c-4.01,0.2075 -7.135,0.52 -10.26,0.8325c1.145,1.355 2.29125,2.70875 3.4375,3.75c1.145,1.0425 2.29125,1.77125 4.21875,2.39625c1.92625,0.625 4.635,1.14625 7.86375,1.40625c3.23,0.26 6.98,0.26 10.625,0.0525c3.64625,-0.20875 7.1875,-0.625 9.58375,-0.99c2.39625,-0.365 3.64625,-0.6775 4.4275,-1.40625c0.78125,-0.72875 1.09375,-1.875 1.145,-2.70875c0.0525,-0.8325 -0.15625,-1.35375 -0.36375,-1.875" id="path125121" fill-rule="nonzero" fill="#ffffff"/>
  </g>
 </g>
</svg>